<svg width="328" height="338" viewBox="0 0 328 338" fill="none" xmlns="http://www.w3.org/2000/svg">
<g clip-path="url(#clip0)">
<path opacity="0.1" d="M335.341 220.736C339.406 220.736 342.701 217.413 342.701 213.315C342.701 209.217 339.406 205.894 335.341 205.894C331.277 205.894 327.982 209.217 327.982 213.315C327.982 217.413 331.277 220.736 335.341 220.736Z" fill="#7B4BFF"/>
<path d="M154.922 102.952C158.986 102.952 162.281 99.6293 162.281 95.5309C162.281 91.4324 158.986 88.11 154.922 88.11C150.857 88.11 147.562 91.4324 147.562 95.5309C147.562 99.6293 150.857 102.952 154.922 102.952Z" fill="#C4C4C4"/>
<path d="M175.374 141.6V256.674C171.567 255.439 167.59 254.82 163.591 254.842C146.623 254.842 132.843 266.949 132.843 284.059C132.843 301.169 146.623 313.142 163.591 313.142C180.559 313.142 194.424 300.544 194.424 282.265V202.353H283.909V256.674C280.103 255.438 276.126 254.82 272.127 254.842C255.158 254.842 241.378 266.949 241.378 284.059C241.378 301.169 255.158 313.142 272.127 313.142C289.095 313.142 302.96 300.544 302.96 282.265V141.6H175.374ZM283.913 184.486H194.428V160.813H283.913V184.486Z" fill="#7B4BFF"/>
<path d="M77.1001 309.903C75.4322 308.999 73.6363 308.358 71.7752 308.003C73.1261 307.815 74.4588 307.513 75.7595 307.1C79.2199 305.996 80.9653 304.514 79.6554 303.79C78.3454 303.066 74.4768 303.371 71.0165 304.476C69.8487 304.816 68.7326 305.316 67.6991 305.961C67.3418 305.196 66.3687 304.308 64.8512 303.467C61.789 301.752 57.6448 300.904 55.6237 301.549C53.6026 302.194 54.4567 304.095 57.5325 305.8C59.0308 306.615 60.6338 307.217 62.296 307.588C61.1909 307.717 60.0945 307.913 59.0126 308.174C55.246 309.087 53.0684 310.463 54.147 311.262C55.2256 312.061 59.1589 311.948 62.9254 311.042C64.2952 310.745 65.6216 310.273 66.8723 309.636C67.1819 310.425 68.172 311.351 69.7712 312.247C72.8334 313.962 76.9776 314.809 78.9987 314.165C81.0198 313.52 80.1623 311.605 77.1001 309.903Z" fill="#E4E4E4"/>
<path d="M98.7772 284.831C97.968 284.392 97.0972 284.081 96.1947 283.908C96.8496 283.816 97.496 283.67 98.1273 283.472C99.8082 282.934 100.655 282.217 100.019 281.863C99.3829 281.51 97.5047 281.661 95.8239 282.206C95.2583 282.374 94.7172 282.616 94.2145 282.927C94.041 282.556 93.568 282.124 92.8331 281.716C91.3394 280.889 89.332 280.474 88.3521 280.786C87.3721 281.098 87.7872 282.024 89.2775 282.844C90.0074 283.24 90.7884 283.531 91.598 283.709C91.061 283.774 90.5282 283.87 90.0023 283.997C88.1751 284.436 87.117 285.105 87.6409 285.49C88.1649 285.874 90.0737 285.833 91.9008 285.383C92.5666 285.237 93.2114 285.006 93.8198 284.697C93.9695 285.078 94.4493 285.534 95.225 285.963C96.7187 286.79 98.7228 287.208 99.7061 286.896C100.689 286.584 100.271 285.658 98.7772 284.831Z" fill="#E4E4E4"/>
<path d="M40.4622 259.412C39.9525 259.137 39.404 258.943 38.8359 258.835C39.2491 258.78 39.6567 258.688 40.0539 258.561C41.1053 258.218 41.6361 257.775 41.238 257.556C40.8399 257.336 39.6661 257.429 38.6147 257.765C38.2561 257.868 37.9128 258.019 37.594 258.214C37.3853 257.883 37.0848 257.621 36.7297 257.46C35.7974 256.942 34.5419 256.681 33.9261 256.876C33.3102 257.072 33.5858 257.648 34.5079 258.166C34.9646 258.415 35.4537 258.597 35.9608 258.708C35.624 258.749 35.2899 258.809 34.9604 258.89C33.8172 259.165 33.1537 259.576 33.4804 259.823C33.807 260.07 35.0047 260.033 36.1479 259.758C36.5645 259.667 36.968 259.523 37.349 259.329C37.5506 259.681 37.8581 259.959 38.2268 260.122C39.1625 260.64 40.418 260.901 41.0305 260.705C41.6429 260.51 41.3945 259.93 40.4622 259.412Z" fill="#E4E4E4"/>
<path opacity="0.1" d="M94.1975 183.659C94.3064 183.81 94.371 183.906 94.371 183.906L95.9226 183.703L96.7391 182.633C96.7391 182.633 96.9467 180.273 95.3339 180.3C95.0178 180.287 94.7081 180.207 94.4255 180.063C94.2928 180.77 95.0787 181.357 95.0787 181.357C95.0787 181.357 95.419 181.597 95.3271 182.705C95.2761 183.46 94.6126 183.621 94.1975 183.659Z" fill="black"/>
<path opacity="0.1" d="M95.7899 185.093C96.1301 185.264 96.3853 185.385 96.4363 185.412C96.5928 185.491 97.4162 184.568 97.5285 183.824C97.6408 183.079 99.604 180.763 99.604 180.763C100.019 179.849 100.265 178.867 100.332 177.864C100.407 176.852 99.9919 176.77 99.4985 177C99.4169 177.802 99.2161 179.363 98.818 180.177C98.3213 181.144 96.3308 184.252 95.7899 185.093Z" fill="black"/>
<path opacity="0.1" d="M66.4197 201.335L66.389 201.393C66.4552 201.511 66.5279 201.626 66.6068 201.736L69.7133 200.772C69.7133 200.772 69.533 200.051 69.2608 199.225C68.0325 198.881 66.27 201.046 66.27 201.046L66.4197 201.335Z" fill="black"/>
<path opacity="0.1" d="M57.3828 138.54C59.5212 138.54 61.2548 136.792 61.2548 134.636C61.2548 132.479 59.5212 130.731 57.3828 130.731C55.2443 130.731 53.5107 132.479 53.5107 134.636C53.5107 136.792 55.2443 138.54 57.3828 138.54Z" fill="black"/>
<path opacity="0.1" d="M42.0104 135.26L42.1091 136.008L45.3244 136.468C45.3244 136.468 45.5864 136.269 46.0049 135.998C45.6646 135.919 44.0655 135.569 43.2285 135.311C42.9188 135.215 42.7147 135.133 42.7079 135.078C42.7011 135.023 42.7283 135.013 42.7793 134.972C42.303 135.154 42.0104 135.26 42.0104 135.26Z" fill="black"/>
<path opacity="0.1" d="M41.3741 137.394L43.3918 137.686C43.4713 137.628 43.5569 137.58 43.6469 137.542C43.7595 137.699 43.9254 137.81 44.1135 137.853C44.3015 137.896 44.4986 137.868 44.6677 137.775C44.8986 137.624 45.1014 137.434 45.2665 137.212C45.4685 136.935 45.6526 136.645 45.8177 136.344C45.8177 136.344 43.9157 135.932 42.9698 135.637L41.3741 137.394Z" fill="black"/>
<path opacity="0.1" d="M81.4654 169.332L77.8894 172.059C77.8894 172.059 79.509 172.903 81.0163 173.881C82.333 172.982 83.5749 172.166 84.5174 171.407C83.2619 170.948 81.4654 169.332 81.4654 169.332Z" fill="black"/>
<path opacity="0.1" d="M61.8944 187.059C62.7883 186.947 63.667 186.735 64.5143 186.428C64.5143 186.428 65.1744 186.283 66.1543 185.954C66.1237 185.611 66.1033 185.22 66.0999 184.777C66.0357 183.508 65.8718 182.246 65.6099 181.003L61.9863 181.666L61.891 185.752C61.7869 186.181 61.7881 186.63 61.8944 187.059Z" fill="black"/>
<path opacity="0.1" d="M55.5692 162.429C55.5692 162.429 55.5148 165.918 55.1269 166.635L55.5692 162.429Z" fill="black"/>
<path opacity="0.1" d="M54.8071 132.327C55.1133 132.532 55.3685 132.858 55.7326 132.906C55.9952 132.914 56.255 132.85 56.4845 132.721C57.0936 132.454 57.7809 132.248 58.4137 132.457C59.312 132.755 59.8053 133.798 60.7002 134.107C60.9766 134.2 61.2727 134.217 61.5576 134.155C61.728 134.115 61.8911 134.048 62.0408 133.956C62.3859 133.734 62.6304 133.384 62.7212 132.982C62.7836 132.633 62.7535 132.273 62.634 131.939C62.5146 131.606 62.3099 131.31 62.0408 131.081C61.4902 130.633 60.8358 130.333 60.1388 130.21C58.3423 129.808 56.4743 129.942 54.6404 130.083C54.4897 130.079 54.3411 130.118 54.2117 130.196C53.9327 130.405 53.4563 131.459 53.555 131.815C53.6911 132.279 54.7561 131.936 54.8071 132.327Z" fill="black"/>
<path opacity="0.1" d="M78.4611 134.68C78.5219 134.676 78.5829 134.683 78.6414 134.701C79.2028 134.872 79.9309 139.765 79.3525 140.211C79.0632 140.43 78.7261 140.577 78.3692 140.64H78.2841L78.097 139.01C78.0495 139.036 78.004 139.066 77.9609 139.099V139.03C78.1087 138.406 78.1136 137.755 77.975 137.128C77.8365 136.501 77.5582 135.914 77.1613 135.411L78.4611 134.68Z" fill="black"/>
<path d="M89.5005 9.65167V86.8799C83.9745 83.6654 77.5508 82.3799 71.2262 83.2229C64.9017 84.0659 59.0299 86.9903 54.522 91.5422C50.0142 96.0941 47.1224 102.019 46.2954 108.398C45.4684 114.776 46.7524 121.251 49.9483 126.819C53.1441 132.386 58.073 136.735 63.9701 139.189C69.8672 141.643 76.4027 142.066 82.5625 140.392C88.7223 138.718 94.1619 135.04 98.0372 129.93C101.913 124.82 104.007 118.564 103.995 112.131V38.9167H133.052V9.65167H89.5005Z" fill="#7B4BFF"/>
<path opacity="0.1" d="M128.629 9.65167V34.1136H99.5718V107.328C99.5737 112.826 98.0387 118.214 95.1429 122.873C92.2471 127.532 88.1077 131.274 83.1995 133.67C78.2912 136.065 72.8127 137.018 67.3923 136.417C61.9718 135.817 56.8288 133.689 52.553 130.277C56.2904 135.045 61.4079 138.522 67.1947 140.224C72.9815 141.926 79.1503 141.768 84.8441 139.773C90.538 137.778 95.4742 134.044 98.9672 129.09C102.46 124.137 104.336 118.209 104.335 112.131V38.9167H133.392V9.65167H128.629Z" fill="black"/>
<path d="M46.6429 16.0056L46.7416 16.7535L49.957 17.2133C49.957 17.2133 50.2189 17.0143 50.6375 16.7433C51.3996 16.2389 52.6789 15.4876 53.7677 15.2749C55.452 14.9318 60.8074 12.513 59.0824 12.3552C57.3573 12.1974 57.5343 12.5576 57.5343 12.5576C57.5343 12.5576 55.6323 10.6741 53.6691 12.3964C52.1788 13.7035 48.9056 15.1102 47.4119 15.7106C46.9356 15.8993 46.6429 16.0056 46.6429 16.0056Z" fill="#EFB7B9"/>
<path d="M59.4873 7.40792C59.979 7.19986 60.4983 7.06577 61.0286 7.00994C61.2938 6.98241 61.5618 7.01223 61.8147 7.09742C62.0676 7.18262 62.2995 7.32122 62.4951 7.50398C62.7026 7.72013 62.8353 7.99802 63.0395 8.2176C64.0194 9.2743 65.9214 8.4852 67.102 9.30517C67.8267 9.81294 68.0513 10.7701 68.3099 11.6244C68.5685 12.4787 69.038 13.4153 69.9023 13.5972C70.321 13.6376 70.7433 13.6214 71.1578 13.5491C71.3658 13.516 71.5788 13.537 71.7766 13.6103C71.9743 13.6835 72.1501 13.8066 72.2874 13.9677C72.6889 14.5818 72.1343 15.6076 72.7161 16.0468C73.2367 16.4345 74.1792 15.8924 74.5432 16.431C74.6131 16.5753 74.6385 16.7375 74.6161 16.8965C74.5936 17.0555 74.5244 17.2041 74.4173 17.323C74.2012 17.5566 74.0032 17.8067 73.8253 18.071C73.7308 18.252 73.6868 18.4555 73.6978 18.6598C73.7089 18.864 73.7746 19.0615 73.888 19.2311C74.0015 19.4007 74.1583 19.5361 74.342 19.6231C74.5257 19.71 74.7292 19.7451 74.9311 19.7246C75.2986 19.6869 75.6899 19.4776 76.0097 19.6594C76.1099 19.7264 76.1929 19.8164 76.2521 19.9219C76.3112 20.0275 76.3447 20.1456 76.3499 20.2667C76.373 20.6773 76.238 21.081 75.973 21.3936C75.708 21.7061 75.3335 21.9035 74.9277 21.9444C74.3017 21.9856 73.7266 21.6425 73.1686 21.3543C72.6106 21.0661 71.9539 20.8225 71.3755 21.0627C71.1096 21.1931 70.866 21.3657 70.6542 21.5739C69.9917 22.1348 69.2422 22.5822 68.4358 22.8982C67.7281 23.1795 66.9047 23.3476 66.2242 22.9977C65.4586 22.6031 65.0639 21.6425 64.2542 21.3509C63.4444 21.0592 62.5189 21.6047 61.7431 22.0679C60.9674 22.5311 59.9296 22.9187 59.2287 22.3492C58.4734 21.7351 58.7047 20.5034 58.2454 19.6423C58.0591 19.3197 57.8075 19.0404 57.5071 18.8223C56.9899 18.4209 56.4012 18.119 55.8807 17.7245C55.3346 17.3532 54.9405 16.795 54.7715 16.1531C54.6184 15.3743 54.9858 14.5955 55.4043 13.9231C55.8228 13.2506 56.3094 12.5919 56.4455 11.8131C56.5476 11.2299 56.4455 10.6226 56.5782 10.0462C56.672 9.70036 56.849 9.38318 57.0936 9.12284C57.3381 8.8625 57.6426 8.66704 57.98 8.55382C58.3611 8.42345 58.4291 8.45775 58.6231 8.1181C58.7092 7.94491 58.8308 7.79209 58.9797 7.66969C59.1287 7.54728 59.3017 7.45807 59.4873 7.40792Z" fill="#3C3C3C"/>
<g opacity="0.1">
<path opacity="0.1" d="M72.3793 14.2044C72.4606 14.5411 72.4815 14.8896 72.4409 15.2337C72.3566 14.8974 72.3357 14.5483 72.3793 14.2044Z" fill="black"/>
<path opacity="0.1" d="M73.8355 18.1327C73.7751 18.2506 73.7359 18.3784 73.7198 18.5101C73.6581 18.3563 73.6298 18.191 73.6368 18.0253C73.6438 17.8596 73.6861 17.6973 73.7606 17.5495C73.9384 17.2861 74.1363 17.0372 74.3526 16.805C74.4263 16.7 74.4837 16.5843 74.5228 16.4619L74.55 16.4928C74.6196 16.6363 74.6451 16.7976 74.6233 16.9559C74.6015 17.1142 74.5333 17.2624 74.4275 17.3813C74.211 17.6158 74.013 17.867 73.8355 18.1327Z" fill="black"/>
<path opacity="0.1" d="M55.8126 17.2132C56.3332 17.6112 56.9184 17.8994 57.4356 18.3145C57.7369 18.5315 57.9887 18.8111 58.1739 19.1345C58.6332 19.9956 58.4019 21.2273 59.1572 21.8414C59.8581 22.411 60.8993 22.0267 61.675 21.5601C62.4508 21.0935 63.3355 20.5309 64.1827 20.8431C65.0299 21.1553 65.3871 22.0953 66.1561 22.4899C66.8366 22.8329 67.6566 22.6683 68.3677 22.3904C69.1727 22.0736 69.9209 21.6263 70.5827 21.0661C70.7959 20.8587 71.0392 20.6852 71.3041 20.5514C71.8859 20.3147 72.5426 20.5514 73.1006 20.8465C73.6586 21.1415 74.2336 21.4778 74.8562 21.4366C75.2148 21.3966 75.5495 21.2356 75.8058 20.9796C76.0622 20.7236 76.2252 20.3877 76.2683 20.0265C76.3083 20.1228 76.3335 20.2245 76.3431 20.3284C76.37 20.7393 76.2379 21.1447 75.9746 21.4594C75.7113 21.7742 75.3373 21.9738 74.9311 22.0164C74.3084 22.0576 73.73 21.7145 73.1754 21.4297C72.6208 21.145 71.9607 20.898 71.3789 21.1347C71.1148 21.2684 70.8718 21.4406 70.6576 21.6459C69.9959 22.2071 69.2477 22.6556 68.4426 22.9736C67.7349 23.2515 66.9081 23.4196 66.231 23.0731C65.462 22.6786 65.0707 21.7179 64.2575 21.4263C63.4443 21.1347 62.5223 21.6768 61.7499 22.1434C60.9775 22.6099 59.933 22.9942 59.2321 22.4212C58.4767 21.8071 58.7081 20.5789 58.2487 19.7143C58.0625 19.3927 57.8109 19.1144 57.5104 18.8978C56.9966 18.4964 56.408 18.1945 55.8874 17.7965C55.3401 17.4259 54.9447 16.8675 54.7748 16.2251C54.7483 16.0896 54.7369 15.9515 54.7408 15.8134C54.9429 16.3822 55.318 16.8721 55.8126 17.2132Z" fill="black"/>
</g>
<path opacity="0.1" d="M57.1906 35.0331L56.0236 35.2835C56.0236 35.2835 57.1736 37.191 58.9463 35.9388C60.719 34.6865 57.1906 35.0331 57.1906 35.0331Z" fill="black"/>
<path d="M82.522 52.7876C82.522 52.7876 84.1416 53.6316 85.6488 54.6094C86.7308 55.2956 87.755 56.0744 88.0884 56.6473C88.8914 58.0197 92.794 59.5086 92.794 59.5086L96.6661 62.4798C97.5779 62.7851 98.466 63.9036 98.83 64.4045C98.9389 64.5554 99.0036 64.6515 99.0036 64.6515L100.555 64.4491L101.372 63.3786C101.372 63.3786 101.579 61.0182 99.9665 61.0457C99.6504 61.033 99.3406 60.9523 99.058 60.8089C97.3227 60.037 94.8968 57.6011 94.8968 57.6011C94.8968 57.6011 90.773 52.4068 89.5379 52.2353C89.4057 52.215 89.2757 52.1817 89.15 52.1358C87.8945 51.6932 86.0878 50.0601 86.0878 50.0601L82.522 52.7876Z" fill="#EFB7B9"/>
<path d="M66.527 67.8044C66.9387 70.2986 68.8134 75.0675 69.4157 76.0624C70.1642 77.2941 70.5555 79.7609 70.5555 79.7609L70.7767 81.4763C70.8181 81.7112 70.9011 81.9366 71.0216 82.1419C71.0878 82.2603 71.1605 82.3748 71.2394 82.485L74.3458 81.5209C74.3458 81.5209 74.1655 80.8004 73.8933 79.9736C73.6211 79.1468 73.2128 78.1072 72.8249 77.723C72.0662 76.9716 71.9539 74.3196 71.9539 74.3196C71.9539 74.3196 71.321 69.2213 71.1271 68.5798C70.9467 67.9673 70.8327 67.3369 70.7869 66.6997C70.7562 66.3566 70.7358 65.9655 70.7324 65.5229C70.6682 64.2538 70.5044 62.9919 70.2425 61.749L66.6188 62.4111L66.5236 66.4973C66.4195 66.9268 66.4206 67.3754 66.527 67.8044Z" fill="#EFB7B9"/>
<path d="M98.66 64.5485C98.762 64.9294 99.742 65.4886 100.422 65.8385C100.763 66.0101 101.018 66.1302 101.069 66.1576C101.225 66.2365 102.049 65.3136 102.161 64.5691C102.273 63.8246 104.237 61.5088 104.237 61.5088C104.651 60.5949 104.898 59.6126 104.965 58.6098C105.04 57.5977 104.624 57.5153 104.131 57.7452C103.779 57.9323 103.463 58.1822 103.199 58.4828C102.862 58.8022 102.444 59.0208 101.991 59.1141C101.375 59.2677 100.788 59.5203 100.252 59.862C99.776 60.1708 99.3132 60.5482 99.2316 60.8913C99.0512 61.622 99.8747 62.2396 99.8747 62.2396C99.8747 62.2396 100.215 62.4798 100.123 63.5879C100.031 64.6961 98.6498 64.5142 98.66 64.5485Z" fill="#3C3C3C"/>
<path d="M70.8447 84.4131C70.8447 84.4131 73.4374 85.3291 74.5874 85.1885C75.4755 85.0821 75.5129 84.667 75.4517 83.8161C75.4313 83.5417 75.404 83.226 75.387 82.8624C75.3292 81.3528 74.7269 81.0474 74.7269 81.0474C73.7402 78.44 70.8992 81.9395 70.8992 81.9395L71.0455 82.2276C70.8405 82.6731 70.7415 83.1606 70.7563 83.6514C70.7624 83.9075 70.792 84.1625 70.8447 84.4131Z" fill="#3C3C3C"/>
<path opacity="0.1" d="M70.8447 84.4131C70.8447 84.4131 73.4374 85.3291 74.5874 85.1885C75.4755 85.0821 75.5129 84.667 75.4516 83.8161C75.1602 84.0592 74.822 84.2389 74.4584 84.344C74.0948 84.4491 73.7136 84.4773 73.3387 84.4268C72.4418 84.3117 71.5695 84.0498 70.7562 83.6514C70.7624 83.9075 70.792 84.1625 70.8447 84.4131Z" fill="black"/>
<path d="M57.9936 21.0043L59.0143 25.4644L59.2219 26.3839L61.0967 26.624L63.0293 26.871L65.132 26.1025C65.132 26.1025 65.7172 24.0852 65.2341 22.5722C65.0818 22.0334 64.7345 21.5718 64.2609 21.2788C64.1141 21.1901 63.9781 21.0842 63.8561 20.9631C63.7161 20.82 63.6011 20.6542 63.5158 20.4725C63.4134 20.2488 63.3523 20.0082 63.3355 19.7624C63.23 18.5581 63.9853 17.2407 63.9853 17.2407C63.9853 17.2407 59.5281 15.7071 59.8752 16.6986C60.1031 17.3402 59.4737 18.4586 59.0041 19.1654C58.7489 19.5462 58.5414 19.8104 58.5414 19.8104L57.9936 21.0043Z" fill="#EFB7B9"/>
<path d="M61.9983 19.1414C64.1367 19.1414 65.8703 17.3934 65.8703 15.2371C65.8703 13.0808 64.1367 11.3328 61.9983 11.3328C59.8598 11.3328 58.1263 13.0808 58.1263 15.2371C58.1263 17.3934 59.8598 19.1414 61.9983 19.1414Z" fill="#EFB7B9"/>
<path d="M58.2726 35.8462C58.4563 36.7073 59.2933 38.0625 59.2933 38.0625L64.6998 39.4005L68.5616 35.3247V35.2972C68.4426 34.9164 66.9693 30.1098 68.0343 28.9262C69.1503 27.6945 68.7148 24.219 68.7148 24.219C68.7148 24.219 66.7856 21.9821 66.3943 21.4401C66.003 20.898 63.4988 20.4726 63.4988 20.4726C63.6247 20.6441 63.7403 20.8156 63.839 20.9632C64.1095 21.3682 64.3172 21.8125 64.4549 22.2806C64.6164 22.7471 64.5982 23.2577 64.4038 23.7113C64.3446 23.8276 64.3 23.9509 64.2711 24.0784C63.8492 25.9413 61.9234 25.6806 61.1579 25.4953C60.9605 25.4473 60.838 25.4061 60.838 25.4061L58.9973 25.4644L57.8405 25.5022C57.8405 25.5022 58.3678 34.69 58.2419 35.4207C58.2263 35.5632 58.2367 35.7074 58.2726 35.8462Z" fill="#F86D70"/>
<path d="M59.7867 36.0108L64.2406 35.8461V31.1527C63.7111 30.6592 63.1055 30.256 62.4475 29.9588C61.6275 29.6706 60.6509 28.7649 60.9674 26.2775C61.0824 25.6183 61.0346 24.9407 60.8281 24.3046C60.6215 23.6685 60.2627 23.0935 59.7833 22.6305L59.7153 22.5722L58.9905 19.1688C58.7631 19.1884 58.5427 19.2578 58.3447 19.3722C58.1467 19.4866 57.9757 19.6431 57.8439 19.831C57.7654 19.9709 57.6755 20.104 57.5751 20.229C57.4879 20.3802 57.3467 20.4921 57.1803 20.5418C57.014 20.5916 56.8351 20.5754 56.6803 20.4966C56.2107 20.2873 54.1896 19.4261 53.7371 20.2701C53.2846 21.1141 53.1995 26.1403 53.1995 26.1403C53.8681 26.6932 54.3301 27.4591 54.5095 28.312C54.8191 29.7495 55.3363 29.7838 55.3363 29.7838L55.8943 33.9009C55.8943 33.9009 56.4013 34.7963 56.0236 35.2903" fill="#3C3C3C"/>
<path d="M57.5751 20.2289L58.3338 22.5207L59.7833 22.6477L59.7152 22.5894L58.9905 19.186C58.7631 19.2056 58.5427 19.275 58.3447 19.3894C58.1466 19.5037 57.9757 19.6603 57.8439 19.8481C57.7646 19.9822 57.6747 20.1095 57.5751 20.2289Z" fill="#3C3C3C"/>
<path d="M42.873 20.8465C42.873 20.8465 46.5171 23.6358 48.7763 24.0852C48.7763 24.0852 51.9542 25.0321 53.1995 26.1437L54.5605 20.8534L53.7269 20.2735C53.7269 20.2735 52.73 20.8945 51.8726 20.6887C51.0151 20.4828 50.0658 20.3456 50.0658 20.3456C49.3153 20.0666 48.5424 19.8531 47.7556 19.7075C47.1431 19.656 47.3915 18.8532 48.0039 18.4278C48.0835 18.3704 48.1691 18.3221 48.2591 18.2837C48.3716 18.4415 48.5376 18.5524 48.7256 18.5954C48.9137 18.6384 49.1108 18.6105 49.2799 18.517C49.5108 18.3665 49.7136 18.176 49.8787 17.9543C50.1321 17.6298 50.3596 17.2857 50.5592 16.925C50.5592 16.925 48.6572 16.5133 47.7113 16.2183C47.4017 16.1222 47.1976 16.0399 47.1907 15.985C47.1635 15.7654 48.892 15.0724 48.892 15.0724C48.892 15.0724 47.4153 14.3519 46.8165 14.8768C46.8165 14.8768 47.2044 15.1685 46.8913 15.4566C46.5783 15.7448 42.8084 18.6713 42.8084 18.6713C42.8084 18.6713 40.9472 19.5942 42.873 20.8465Z" fill="#3C3C3C"/>
<path d="M60.0691 51.2266C60.7973 52.3142 62.7911 56.9389 62.7911 56.9389C63.2406 57.7601 63.7477 58.5478 64.3086 59.2959C65.1014 60.3012 65.6492 62.5621 66.2514 64.3701C66.8537 66.1782 66.0745 65.8385 66.1596 66.7717C66.2446 67.7049 69.6505 66.4973 69.6505 66.4973C69.6505 66.4973 76.6086 64.9534 78.7351 60.6648C80.8617 56.3763 89.3542 52.4926 91.0725 50.0807C92.7907 47.6688 90.5859 48.6638 90.671 47.3566C90.756 46.0495 89.7761 44.955 89.7761 44.955C89.7761 44.955 86.571 44.0424 86.0504 43.4077C85.5298 42.773 82.9712 41.1845 82.9712 41.1845C82.9712 41.1845 80.5588 40.1313 80.2492 39.7642C79.9396 39.3971 77.0815 38.258 76.2071 38.0488C75.3326 37.8395 74.4752 36.5735 74.4752 36.5735C74.4752 36.5735 73.9342 36.6455 73.1346 35.8633C72.335 35.0811 68.9802 34.4086 68.9802 34.4086C63.2538 38.6629 59.2968 38.0693 59.2968 38.0693L59.2049 38.8722C56.1597 42.8725 59.341 50.139 60.0691 51.2266Z" fill="#3C3C3C"/>
<path opacity="0.1" d="M59.2049 38.8653C59.2049 38.8653 64.1555 40.5086 68.9836 34.4292C63.2538 38.6628 59.2968 38.0693 59.2968 38.0693L59.2049 38.8653Z" fill="black"/>
<path opacity="0.1" d="M67.7247 41.7026C67.7247 41.7026 74.3731 51.381 74.7848 51.7343C75.1965 52.0877 68.0751 41.5825 67.7247 41.7026Z" fill="black"/>
<path opacity="0.1" d="M64.6522 40.9615C64.6522 40.9615 69.2558 48.1663 69.1639 49.1407C69.1639 49.1407 64.7203 42.2138 64.6522 40.9615Z" fill="black"/>
<path opacity="0.1" d="M61.9711 42.9411C61.9711 42.9411 62.8217 46.9724 61.5424 49.2573L61.9711 42.9411Z" fill="black"/>
<path opacity="0.1" d="M71.4776 40.0626L77.5918 42.4779L75.353 42.773L71.4776 40.0626Z" fill="black"/>
<path d="M59.4226 12.9282C59.7288 13.1306 59.9806 13.4599 60.3481 13.508C60.61 13.5149 60.8688 13.4497 61.0966 13.3193C61.7057 13.0517 62.3964 12.8458 63.0258 13.0551C63.9241 13.357 64.4175 14.4 65.3123 14.7053C65.5884 14.7999 65.8849 14.8165 66.1697 14.7534C66.3405 14.7158 66.5038 14.6497 66.6529 14.5578C67.003 14.337 67.2543 13.9876 67.3538 13.5834C67.4137 13.2322 67.3808 12.8713 67.2583 12.537C67.1359 12.2028 66.9282 11.9069 66.6563 11.6793C66.1051 11.2327 65.4508 10.9341 64.7543 10.8113C62.9578 10.4065 61.0932 10.5437 59.2559 10.6809C59.105 10.6788 58.9565 10.7192 58.8272 10.7976C58.5516 11.0034 58.0718 12.0601 58.1705 12.417C58.3066 12.8938 59.3716 12.5302 59.4226 12.9282Z" fill="#3C3C3C"/>
<path d="M83.0936 15.7997L83.6789 18.1842L84.4376 17.721L88.5614 15.2131C88.5614 15.2131 91.6849 15.0964 91.9265 12.5645C92.168 10.0325 88.4559 12.5404 88.2586 12.7326C88.0612 12.9247 87.6121 13.2643 87.6121 13.2643L83.7741 15.4258L83.0936 15.7997Z" fill="#EFB7B9"/>
<path opacity="0.1" d="M83.0936 15.7998L83.6788 18.1842L84.4376 17.721C84.2709 16.6437 84.0089 15.6625 83.7571 15.4224L83.0936 15.7998Z" fill="black"/>
<path opacity="0.1" d="M62.74 31.3895L63.5804 36.3642L68.5548 35.3247C68.4357 34.9439 66.9625 30.1372 68.0274 28.9536C69.1434 27.7219 68.7079 24.2465 68.7079 24.2465C68.7079 24.2465 66.7787 22.0096 66.3874 21.4675C65.9962 20.9254 63.4919 20.5 63.4919 20.5C63.3895 20.2763 63.3284 20.0356 63.3116 19.7898C63.2308 19.9603 63.167 20.1384 63.1211 20.3216C63.1211 21.2274 63.4851 21.8518 64.448 22.3081C64.5331 22.3492 64.6216 22.387 64.7168 22.4247C64.8665 22.4865 65.0333 22.5448 65.2102 22.5997L65.2918 22.6237C66.8944 23.104 67.2415 24.0715 67.2415 24.0715C67.8022 24.8167 68.0623 25.7483 67.9696 26.679C67.8131 28.2057 62.74 31.3895 62.74 31.3895Z" fill="black"/>
<path d="M63.019 31.3518L63.8595 36.323L69.4837 35.1428C69.4837 35.1428 69.3136 33.2662 68.9223 32.5045C68.5311 31.7429 68.6093 28.7683 68.6093 28.7683C70.991 26.1815 69.7389 24.0784 69.7389 24.0784C69.7389 24.0784 76.7378 22.9325 76.8569 22.706C76.976 22.4796 79.3101 21.2239 79.3101 21.2239C79.3101 21.2239 81.8449 20.5686 82.1886 20.1947C82.3151 20.0552 82.454 19.9277 82.6037 19.8138C82.6468 19.7807 82.6923 19.7509 82.7398 19.7246L82.9269 21.3543H83.012C83.4111 21.3074 83.7912 21.156 84.1144 20.9151C84.6928 20.4691 83.9613 15.5802 83.3999 15.4086C83.2938 15.381 83.1826 15.381 83.0766 15.4086C82.6363 15.5493 82.2265 15.7728 81.8687 16.0674L81.7701 16.1463L81.736 16.1771C81.736 16.1771 78.5683 17.4294 77.9355 18.0058C77.3026 18.5822 72.3758 19.3129 72.3758 19.3129C72.3758 19.3129 70.1676 19.8413 69.8818 19.5222C69.596 19.2032 66.2242 18.6817 65.9418 19.1791C65.6594 19.6766 64.8768 19.5874 64.8768 19.5874C64.3222 18.9424 63.9377 19.1929 63.7029 19.5634C63.5679 19.7858 63.467 20.0276 63.4035 20.2804C63.4035 21.2685 63.8356 21.9169 64.9993 22.3835C65.1762 22.4522 65.3667 22.5208 65.5743 22.5825C67.1803 23.0628 67.5239 24.0303 67.5239 24.0303C68.0864 24.7747 68.3479 25.7066 68.2554 26.6378C68.1023 28.1679 63.019 31.3518 63.019 31.3518Z" fill="#3C3C3C"/>
<path d="M82.7262 19.7487L82.9133 21.3783C83.3497 21.3443 83.7669 21.1834 84.1144 20.9151C84.6928 20.4691 83.9613 15.5802 83.3999 15.4086C82.9576 15.2714 82.1784 15.8272 81.8688 16.0639C82.2849 16.5692 82.579 17.165 82.7278 17.8045C82.8766 18.4439 82.876 19.1095 82.7262 19.7487Z" fill="#3C3C3C"/>
<path d="M65.0129 22.3733L65.8193 21.6116L63.7165 19.5531C63.5815 19.7756 63.4805 20.0173 63.4171 20.2701C63.4239 21.2582 63.8492 21.9067 65.0129 22.3733Z" fill="#3C3C3C"/>
<path opacity="0.1" d="M59.3852 12.6365C59.6914 12.839 59.9432 13.1683 60.3107 13.2163C60.5726 13.2233 60.8314 13.1581 61.0592 13.0276C61.6683 12.76 62.359 12.5542 62.9884 12.7635C63.8867 13.0654 64.38 14.1084 65.2749 14.4137C65.551 14.5082 65.8475 14.5249 66.1323 14.4617C66.419 14.3992 66.6823 14.2562 66.8919 14.0492C67.1014 13.8421 67.2486 13.5796 67.3164 13.2918C67.3491 13.1491 67.3617 13.0024 67.3538 12.8561C67.4083 13.0954 67.4083 13.3441 67.3538 13.5834C67.2556 13.9882 67.004 14.338 66.6529 14.5578C66.5041 14.6503 66.3407 14.7165 66.1697 14.7534C65.8861 14.8165 65.5907 14.7999 65.3157 14.7053C64.4175 14.4 63.9241 13.357 63.0259 13.0551C62.3964 12.8458 61.7057 13.0551 61.0967 13.3193C60.8688 13.4497 60.61 13.5149 60.3481 13.508C59.984 13.4599 59.7289 13.1306 59.4226 12.9282C59.3716 12.5302 58.3066 12.8938 58.1739 12.417C58.1598 12.3445 58.1598 12.2699 58.1739 12.1974C58.3849 12.5645 59.3342 12.2626 59.3852 12.6365Z" fill="black"/>
<path opacity="0.1" d="M62.6788 23.8657C62.6788 23.8657 62.2331 25.1282 62.8013 25.5536C62.8013 25.5536 62.1787 23.8828 61.818 23.9206" fill="black"/>
<g opacity="0.1">
<path opacity="0.1" d="M279.493 200.295H190.008V280.213C190.008 298.486 176.143 311.09 159.175 311.09C155.133 311.106 151.122 310.396 147.327 308.994C152.308 311.762 157.911 313.193 163.598 313.149C180.566 313.149 194.431 300.551 194.431 282.271V202.353H279.493V200.295Z" fill="black"/>
<path opacity="0.1" d="M190.001 182.424H194.424V160.806H279.493V158.748H190.001V182.424Z" fill="black"/>
<path opacity="0.1" d="M298.543 141.6V280.206C298.543 298.479 284.678 311.084 267.71 311.084C263.669 311.099 259.657 310.389 255.863 308.987C260.844 311.755 266.446 313.186 272.133 313.142C289.101 313.142 302.967 300.544 302.967 282.265V141.6H298.543Z" fill="black"/>
</g>
<path d="M197.286 109.978C199.48 114.551 203.07 119.753 207.129 117.766C211.188 115.78 214.22 107.354 212.025 102.773C209.831 98.1932 204.747 96.1107 200.678 98.0971C196.609 100.084 195.088 105.412 197.286 109.978Z" fill="#E4E4E4"/>
<path d="M205.972 120.662C205.972 120.662 206.765 120.528 206.462 119.869C206.435 119.811 206.403 119.755 206.367 119.701C206.206 119.443 206.103 119.153 206.064 118.85C206.016 118.497 206.028 118.139 206.101 117.79L203.941 117.646C203.941 117.646 204.781 118.367 204.683 118.744C204.668 118.799 204.633 118.846 204.584 118.874C204.542 118.906 204.493 118.927 204.441 118.936L204.278 118.984C203.71 119.187 203.938 119.475 203.938 119.475C204.012 120.415 205.972 120.662 205.972 120.662Z" fill="#7B4BFF"/>
<path d="M204.584 118.874L206.108 119.087C206.089 119.009 206.074 118.93 206.064 118.85C205.676 118.833 205.067 118.782 204.683 118.744C204.668 118.799 204.633 118.846 204.584 118.874Z" fill="#3C3C3C"/>
<path d="M205.972 120.662C205.972 120.662 206.765 120.528 206.462 119.869C206.156 119.942 205.838 119.955 205.526 119.907C205.008 119.774 204.56 119.443 204.278 118.984C203.71 119.187 203.938 119.475 203.938 119.475C204.012 120.415 205.972 120.662 205.972 120.662Z" fill="#7B4BFF"/>
<path opacity="0.1" d="M205.972 120.662C205.972 120.662 206.765 120.528 206.462 119.869C206.156 119.942 205.838 119.955 205.526 119.907C205.008 119.774 204.56 119.443 204.278 118.984C203.71 119.187 203.938 119.475 203.938 119.475C204.012 120.415 205.972 120.662 205.972 120.662Z" fill="black"/>
<path opacity="0.1" d="M204.819 98.5775C204.819 98.5775 207.235 98.2824 207.918 99.9052C207.629 99.8561 207.332 99.8737 207.051 99.9567C206.874 100.038 206.68 100.075 206.486 100.066C206.122 99.387 205.532 98.8595 204.819 98.5775Z" fill="#E4E4E4"/>
<path d="M207.415 131.644C207.465 131.603 207.511 131.557 207.551 131.507C207.697 131.339 207.873 131.2 208.068 131.095C208.137 131.054 208.209 131.017 208.283 130.985C208.501 130.891 208.729 130.822 208.963 130.779C209.076 130.76 209.189 130.747 209.303 130.742L208.997 129.266V129.246L208.864 128.604C208.774 128.79 208.672 128.97 208.558 129.143C208.402 129.383 208.218 129.613 208.014 129.616C207.958 129.615 207.903 129.595 207.861 129.558C207.822 129.522 207.79 129.481 207.765 129.434C207.731 129.38 207.704 129.331 207.673 129.287C207.333 128.793 207.119 129.102 207.119 129.102C206.731 129.242 206.571 129.709 206.513 130.179C206.513 130.248 206.513 130.316 206.493 130.381C206.473 130.714 206.485 131.049 206.527 131.38C206.527 131.38 206.877 132.117 207.415 131.644Z" fill="#7B4BFF"/>
<path d="M208.095 131.095C208.164 131.054 208.236 131.017 208.31 130.985C208.235 130.666 208.143 130.186 208.078 129.808C208.078 129.781 208.078 129.757 208.078 129.729C208.078 129.702 208.078 129.651 208.058 129.616C208.002 129.615 207.948 129.595 207.905 129.558L207.939 129.788V129.88L208.095 131.095Z" fill="#3C3C3C"/>
<path d="M207.415 131.644C207.263 131.366 207.166 131.06 207.129 130.745C207.123 130.553 207.144 130.361 207.194 130.175C207.211 130.121 207.224 130.066 207.245 130.014C207.323 129.739 207.471 129.488 207.673 129.287C207.333 128.793 207.119 129.102 207.119 129.102C206.731 129.242 206.571 129.709 206.513 130.179C206.513 130.248 206.513 130.316 206.493 130.381C206.473 130.714 206.485 131.049 206.527 131.38C206.527 131.38 206.877 132.117 207.415 131.644Z" fill="#7B4BFF"/>
<path opacity="0.1" d="M207.415 131.644C207.263 131.366 207.166 131.06 207.129 130.745C207.123 130.553 207.144 130.361 207.194 130.175C207.211 130.121 207.224 130.066 207.245 130.014C207.323 129.739 207.471 129.488 207.673 129.287C207.333 128.793 207.119 129.102 207.119 129.102C206.731 129.242 206.571 129.709 206.513 130.179C206.513 130.248 206.513 130.316 206.493 130.381C206.473 130.714 206.485 131.049 206.527 131.38C206.527 131.38 206.877 132.117 207.415 131.644Z" fill="black"/>
<path d="M192.699 117.526C194.536 118.716 196.656 119.869 198.67 120.48C200.219 120.953 201.702 121.104 202.944 120.706C203.482 120.534 203.976 120.246 204.393 119.862C204.676 119.605 204.922 119.309 205.125 118.984C206.564 116.716 206.537 112.73 205.397 109.278C204.601 106.877 203.281 104.75 201.542 103.624C197.303 100.88 191.886 101.772 189.443 105.611C187 109.45 188.46 114.781 192.699 117.526Z" fill="#7B4BFF"/>
<path d="M192.699 117.526C194.536 118.716 196.656 119.869 198.67 120.48C200.219 120.953 201.702 121.104 202.944 120.706C203.482 120.534 203.976 120.246 204.393 119.862C204.676 119.605 204.922 119.309 205.125 118.984C206.564 116.716 206.537 112.73 205.397 109.278C204.601 106.877 203.281 104.75 201.542 103.624C197.303 100.88 191.886 101.772 189.443 105.611C187 109.45 188.46 114.781 192.699 117.526Z" fill="#C4C4C4"/>
<path d="M203.301 122.127C203.842 122.888 205.635 122.072 205.635 122.072C205.635 122.072 206.244 121.543 205.635 121.142C205.582 121.106 205.526 121.074 205.469 121.046C205.267 120.95 205.084 120.819 204.928 120.658C204.873 120.603 204.819 120.545 204.768 120.483C204.619 120.296 204.491 120.092 204.387 119.876C204.335 119.773 204.291 119.666 204.254 119.557L202.335 120.586C202.539 120.621 202.74 120.67 202.937 120.734C203.213 120.823 203.485 120.953 203.536 121.132C203.558 121.185 203.558 121.244 203.536 121.296C203.514 121.344 203.483 121.388 203.444 121.423C203.405 121.464 203.367 121.506 203.332 121.55C202.944 122.007 203.301 122.127 203.301 122.127Z" fill="#7B4BFF"/>
<path d="M203.529 121.3L204.934 120.675C204.88 120.621 204.826 120.562 204.774 120.501C204.434 120.686 203.893 120.964 203.543 121.135C203.56 121.19 203.555 121.249 203.529 121.3Z" fill="#3C3C3C"/>
<path d="M203.301 122.127C203.842 122.888 205.635 122.072 205.635 122.072C205.635 122.072 206.244 121.543 205.635 121.142C205.413 121.367 205.148 121.544 204.856 121.664C204.346 121.822 203.796 121.777 203.318 121.537C202.944 122.007 203.301 122.127 203.301 122.127Z" fill="#7B4BFF"/>
<path opacity="0.1" d="M203.301 122.127C203.842 122.888 205.635 122.072 205.635 122.072C205.635 122.072 206.244 121.543 205.635 121.142C205.413 121.367 205.148 121.544 204.856 121.664C204.346 121.822 203.796 121.777 203.318 121.537C202.944 122.007 203.301 122.127 203.301 122.127Z" fill="black"/>
<path opacity="0.1" d="M193.22 103.844C193.22 103.844 195.129 102.324 196.551 103.346C196.28 103.458 196.037 103.629 195.84 103.847C195.729 104.01 195.583 104.144 195.411 104.238C194.75 103.85 193.973 103.711 193.22 103.844Z" fill="#E4E4E4"/>
<g opacity="0.1">
<path opacity="0.1" d="M213.73 119.849L213.288 117.711C213.199 117.898 213.097 118.078 212.981 118.25C212.996 118.82 213.135 119.38 213.39 119.89C213.502 119.868 213.616 119.854 213.73 119.849Z" fill="black"/>
<path opacity="0.1" d="M211.838 120.754C211.888 120.713 211.933 120.667 211.974 120.617C212.121 120.449 212.296 120.309 212.491 120.202C212.56 120.161 212.632 120.124 212.706 120.092C212.924 119.997 213.152 119.929 213.386 119.89C213.499 119.868 213.612 119.854 213.726 119.849L213.284 117.711C213.196 117.898 213.093 118.078 212.978 118.25C212.821 118.49 212.621 118.723 212.434 118.727C212.378 118.724 212.326 118.702 212.284 118.665C212.242 118.635 212.207 118.598 212.178 118.555C212.148 118.5 212.117 118.452 212.09 118.408C211.75 117.914 211.532 118.226 211.532 118.226C210.657 118.545 210.94 120.504 210.94 120.504C210.94 120.504 211.29 121.224 211.838 120.754Z" fill="black"/>
<path opacity="0.1" d="M212.491 120.202C212.56 120.161 212.632 120.124 212.706 120.092C212.617 119.718 212.508 119.111 212.437 118.72C212.382 118.717 212.329 118.695 212.287 118.658L212.491 120.202Z" fill="black"/>
<path opacity="0.1" d="M211.838 120.754C211.687 120.475 211.59 120.168 211.552 119.852C211.543 119.313 211.739 118.791 212.1 118.394C211.76 117.9 211.542 118.212 211.542 118.212C210.668 118.531 210.95 120.49 210.95 120.49C210.95 120.49 211.29 121.224 211.838 120.754Z" fill="black"/>
<path opacity="0.1" d="M211.838 120.754C211.687 120.475 211.59 120.168 211.552 119.852C211.543 119.313 211.739 118.791 212.1 118.394C211.76 117.9 211.542 118.212 211.542 118.212C210.668 118.531 210.95 120.49 210.95 120.49C210.95 120.49 211.29 121.224 211.838 120.754Z" fill="black"/>
</g>
<path d="M211.559 120.329C211.609 120.289 211.655 120.243 211.695 120.192C211.843 120.025 212.018 119.886 212.212 119.78C212.281 119.739 212.353 119.702 212.427 119.67C212.645 119.575 212.873 119.507 213.107 119.468C213.22 119.446 213.333 119.432 213.447 119.427L213.005 117.289C212.916 117.476 212.814 117.656 212.699 117.828C212.542 118.068 212.359 118.301 212.155 118.301C212.099 118.301 212.046 118.28 212.005 118.243C211.965 118.208 211.932 118.166 211.906 118.12C211.876 118.065 211.845 118.017 211.818 117.972C211.477 117.478 211.26 117.787 211.26 117.787C210.385 118.109 210.668 120.068 210.668 120.068C210.668 120.068 211.011 120.802 211.559 120.329Z" fill="#7B4BFF"/>
<path d="M212.212 119.78C212.281 119.739 212.353 119.702 212.427 119.67C212.338 119.296 212.229 118.689 212.158 118.298C212.103 118.298 212.049 118.277 212.008 118.24L212.212 119.78Z" fill="#3C3C3C"/>
<path d="M211.559 120.329C211.407 120.051 211.31 119.745 211.273 119.43C211.269 118.889 211.471 118.367 211.838 117.972C211.498 117.478 211.28 117.787 211.28 117.787C210.406 118.109 210.688 120.068 210.688 120.068C210.688 120.068 211.011 120.802 211.559 120.329Z" fill="#7B4BFF"/>
<path opacity="0.1" d="M211.559 120.329C211.407 120.051 211.31 119.745 211.273 119.43C211.269 118.889 211.471 118.367 211.838 117.972C211.498 117.478 211.28 117.787 211.28 117.787C210.406 118.109 210.688 120.068 210.688 120.068C210.688 120.068 211.011 120.802 211.559 120.329Z" fill="black"/>
<g opacity="0.1">
<path opacity="0.1" d="M209.797 114.095C210.272 114.404 210.808 114.604 211.369 114.682C211.415 114.576 211.467 114.473 211.525 114.373L209.524 113.536C209.629 113.715 209.72 113.902 209.797 114.095Z" fill="black"/>
<path opacity="0.1" d="M210.477 117.056C210.477 117.056 211.27 117.19 211.195 116.466C211.188 116.401 211.175 116.336 211.157 116.274C211.103 116.057 211.087 115.833 211.11 115.611C211.116 115.531 211.127 115.45 211.144 115.371C211.215 115.023 211.341 114.688 211.518 114.38L209.517 113.543C209.624 113.719 209.717 113.904 209.796 114.095C209.905 114.363 209.98 114.661 209.878 114.815C209.845 114.862 209.797 114.895 209.742 114.908C209.692 114.919 209.639 114.919 209.589 114.908H209.415C208.817 114.908 208.953 115.251 208.953 115.251C208.704 116.188 210.477 117.056 210.477 117.056Z" fill="black"/>
<path opacity="0.1" d="M209.729 114.915L211.089 115.601C211.096 115.521 211.107 115.44 211.124 115.361C210.763 115.22 210.205 114.97 209.851 114.812C209.823 114.86 209.78 114.896 209.729 114.915Z" fill="black"/>
<path opacity="0.1" d="M210.477 117.056C210.477 117.056 211.27 117.19 211.195 116.466C210.881 116.436 210.576 116.345 210.297 116.198C209.85 115.902 209.532 115.444 209.409 114.919C208.81 114.919 208.946 115.262 208.946 115.262C208.704 116.188 210.477 117.056 210.477 117.056Z" fill="black"/>
<path opacity="0.1" d="M210.477 117.056C210.477 117.056 211.27 117.19 211.195 116.466C210.881 116.436 210.576 116.345 210.297 116.198C209.85 115.902 209.532 115.444 209.409 114.919C208.81 114.919 208.946 115.262 208.946 115.262C208.704 116.188 210.477 117.056 210.477 117.056Z" fill="black"/>
</g>
<path d="M210.331 116.84C210.331 116.84 211.124 116.974 211.049 116.253C211.042 116.188 211.03 116.124 211.011 116.061C210.957 115.844 210.941 115.618 210.964 115.395C210.97 115.316 210.981 115.237 210.998 115.159C211.041 114.921 211.114 114.691 211.215 114.473C211.261 114.367 211.314 114.263 211.372 114.164L209.371 113.323C209.476 113.502 209.567 113.689 209.643 113.882C209.752 114.153 209.827 114.449 209.725 114.606C209.691 114.651 209.643 114.682 209.589 114.696C209.538 114.705 209.487 114.705 209.436 114.696H209.262C208.664 114.696 208.8 115.039 208.8 115.039C208.565 115.975 210.331 116.84 210.331 116.84Z" fill="#7B4BFF"/>
<path d="M209.589 114.702L210.95 115.389C210.956 115.309 210.967 115.23 210.984 115.152C210.623 115.011 210.065 114.761 209.712 114.603C209.683 114.649 209.64 114.684 209.589 114.702Z" fill="#3C3C3C"/>
<path d="M210.331 116.84C210.331 116.84 211.124 116.974 211.049 116.253C210.735 116.22 210.431 116.128 210.15 115.982C209.703 115.687 209.386 115.23 209.262 114.706C208.664 114.706 208.8 115.049 208.8 115.049C208.565 115.975 210.331 116.84 210.331 116.84Z" fill="#7B4BFF"/>
<path opacity="0.1" d="M210.331 116.84C210.331 116.84 211.124 116.974 211.049 116.253C210.735 116.22 210.431 116.128 210.15 115.982C209.703 115.687 209.386 115.23 209.262 114.706C208.664 114.706 208.8 115.049 208.8 115.049C208.565 115.975 210.331 116.84 210.331 116.84Z" fill="black"/>
<path d="M202.478 126.237C202.568 126.051 202.672 125.872 202.787 125.702C202.951 125.462 203.152 125.232 203.335 125.232C203.364 125.231 203.392 125.236 203.418 125.247C203.444 125.258 203.468 125.273 203.488 125.293C203.527 125.328 203.559 125.368 203.584 125.413C203.614 125.472 203.645 125.52 203.672 125.564C204.012 126.065 204.23 125.753 204.23 125.753C205.108 125.444 204.843 123.478 204.843 123.478C204.843 123.478 204.502 122.741 203.958 123.207C203.908 123.248 203.861 123.293 203.818 123.341C203.612 123.564 203.362 123.74 203.083 123.859C202.865 123.951 202.637 124.016 202.403 124.055C202.291 124.076 202.177 124.089 202.063 124.093L202.478 126.237Z" fill="#7B4BFF"/>
<path d="M203.332 125.232C203.36 125.231 203.388 125.236 203.415 125.247C203.441 125.258 203.465 125.273 203.485 125.293L203.294 123.753C203.225 123.793 203.154 123.829 203.08 123.859C203.169 124.237 203.271 124.844 203.332 125.232Z" fill="#3C3C3C"/>
<path d="M203.672 125.564C204.012 126.065 204.23 125.753 204.23 125.753C205.108 125.444 204.843 123.478 204.843 123.478C204.843 123.478 204.502 122.741 203.958 123.207C204.107 123.487 204.199 123.794 204.23 124.11C204.238 124.649 204.038 125.171 203.672 125.564Z" fill="#7B4BFF"/>
<path opacity="0.1" d="M203.672 125.564C204.012 126.065 204.23 125.753 204.23 125.753C205.108 125.444 204.843 123.478 204.843 123.478C204.843 123.478 204.502 122.741 203.958 123.207C204.107 123.487 204.199 123.794 204.23 124.11C204.238 124.649 204.038 125.171 203.672 125.564Z" fill="black"/>
<path opacity="0.1" d="M201.753 129.126C202.396 128.096 202.748 126.911 202.774 125.695C202.937 125.455 203.138 125.225 203.322 125.225C203.35 125.224 203.378 125.23 203.404 125.24C203.431 125.251 203.455 125.267 203.475 125.287C203.513 125.321 203.545 125.361 203.57 125.407C203.601 125.465 203.631 125.513 203.659 125.558C203.999 126.058 204.217 125.746 204.217 125.746C205.094 125.437 204.829 123.472 204.829 123.472C204.829 123.472 204.489 122.734 203.944 123.201C203.894 123.242 203.848 123.286 203.805 123.334C203.598 123.557 203.348 123.733 203.07 123.852C202.851 123.944 202.623 124.01 202.389 124.048C202.22 123.705 202.008 123.385 201.76 123.094C200.922 122.191 199.885 121.501 198.732 121.08C199.208 124.123 200.096 127.328 201.753 129.126Z" fill="black"/>
<path opacity="0.1" d="M206.527 130.179C206.774 130.14 207.018 130.085 207.258 130.014C207.479 129.951 207.696 129.875 207.908 129.788L208.048 129.729C208.228 129.651 208.412 129.565 208.595 129.469C208.779 129.373 208.871 129.325 209.011 129.246C211.6 127.74 214.114 124.71 215.237 121.636C215.556 120.796 215.761 119.917 215.846 119.022C215.887 118.548 215.88 118.071 215.826 117.598C215.667 116.243 215.237 114.934 214.56 113.752C214.485 113.625 214.414 113.505 214.335 113.388C212.634 110.74 209.773 109.141 206.731 109.464C207.391 111.388 208.33 113.028 209.654 113.882C209.763 114.153 209.837 114.449 209.735 114.606C209.701 114.651 209.653 114.682 209.599 114.696C209.549 114.705 209.497 114.705 209.446 114.696H209.273C208.674 114.696 208.81 115.039 208.81 115.039C208.575 115.948 210.341 116.816 210.341 116.816C210.341 116.816 211.134 116.95 211.059 116.229C211.052 116.164 211.04 116.1 211.021 116.037C210.967 115.82 210.951 115.594 210.974 115.371C210.98 115.292 210.991 115.213 211.008 115.135C211.051 114.897 211.124 114.667 211.226 114.449C211.603 114.498 211.985 114.498 212.362 114.449C212.896 114.377 213.418 114.234 213.914 114.023C213.842 114.136 213.777 114.25 213.716 114.366C213.075 115.396 212.722 116.581 212.695 117.797C212.539 118.037 212.355 118.27 212.151 118.27C212.096 118.27 212.042 118.25 212.001 118.212C211.962 118.177 211.928 118.135 211.903 118.089C211.872 118.034 211.841 117.986 211.814 117.941C211.474 117.447 211.256 117.756 211.256 117.756C210.382 118.078 210.664 120.037 210.664 120.037C210.664 120.037 211.004 120.772 211.552 120.298C211.603 120.258 211.648 120.212 211.688 120.161C211.836 119.994 212.011 119.855 212.206 119.749C212.274 119.708 212.346 119.671 212.42 119.639C212.638 119.544 212.866 119.476 213.1 119.437C213.27 119.781 213.484 120.1 213.737 120.387L213.873 120.535L213.825 120.579C212.733 121.574 211.723 122.657 210.807 123.818C210.531 124.161 210.266 124.539 210.031 124.909C209.863 125.168 209.707 125.425 209.562 125.681C208.928 126.713 208.583 127.898 208.561 129.112C208.405 129.352 208.221 129.582 208.017 129.585C207.961 129.584 207.907 129.564 207.864 129.527C207.826 129.492 207.793 129.45 207.769 129.404C207.735 129.349 207.707 129.301 207.677 129.256C207.337 128.762 207.122 129.071 207.122 129.071C206.734 129.242 206.585 129.709 206.527 130.179Z" fill="black"/>
<g opacity="0.1">
<path opacity="0.1" d="M210.402 113.018C210.584 113.09 210.78 113.117 210.974 113.097C211.266 113.111 211.552 113.191 211.811 113.33C211.681 111.573 209.3 111.066 209.3 111.066C209.885 111.564 210.276 112.256 210.402 113.018Z" fill="black"/>
<path opacity="0.1" d="M198.521 119.413C198.565 119.756 198.613 120.13 198.67 120.494C200.219 120.967 201.702 121.118 202.944 120.72C203.22 120.809 203.492 120.94 203.543 121.118C203.564 121.171 203.564 121.23 203.543 121.283C203.521 121.331 203.489 121.374 203.451 121.41C203.411 121.45 203.374 121.492 203.339 121.537C202.958 122.007 203.315 122.127 203.315 122.127C203.856 122.888 205.649 122.072 205.649 122.072C205.649 122.072 206.258 121.543 205.649 121.142C205.595 121.106 205.54 121.074 205.482 121.046C205.281 120.95 205.098 120.819 204.941 120.658C204.887 120.603 204.832 120.545 204.781 120.483C204.632 120.296 204.504 120.092 204.4 119.876C204.683 119.619 204.929 119.323 205.132 118.998C206.571 116.73 206.544 112.743 205.404 109.292C200.981 109.923 197.912 114.438 198.521 119.413Z" fill="black"/>
<path opacity="0.1" d="M202.651 129.386C203.125 129.697 203.66 129.9 204.22 129.98C204.266 129.873 204.319 129.77 204.38 129.671L202.372 128.848C202.477 129.021 202.57 129.201 202.651 129.386Z" fill="black"/>
<path opacity="0.1" d="M203.332 132.344C203.332 132.344 204.128 132.481 204.05 131.757C204.044 131.692 204.033 131.628 204.016 131.565C203.962 131.348 203.945 131.122 203.968 130.899C203.973 130.82 203.983 130.741 203.999 130.663C204.045 130.426 204.118 130.196 204.216 129.976C204.263 129.87 204.316 129.767 204.376 129.668L202.372 128.848C202.475 129.027 202.566 129.213 202.645 129.404C202.75 129.675 202.825 129.973 202.723 130.127C202.691 130.174 202.644 130.207 202.59 130.22C202.538 130.229 202.485 130.229 202.434 130.22C202.377 130.217 202.32 130.217 202.263 130.22C201.661 130.22 201.797 130.563 201.797 130.563C201.566 131.479 203.332 132.344 203.332 132.344Z" fill="black"/>
<path opacity="0.1" d="M202.59 130.22L203.951 130.906C203.951 130.824 203.961 130.745 203.982 130.67C203.624 130.529 203.063 130.278 202.709 130.121C202.682 130.167 202.64 130.202 202.59 130.22Z" fill="black"/>
<path opacity="0.1" d="M203.332 132.344C203.332 132.344 204.125 132.478 204.05 131.754C203.736 131.724 203.431 131.634 203.152 131.486C202.704 131.192 202.385 130.735 202.263 130.21C201.661 130.21 201.797 130.553 201.797 130.553C201.563 131.479 203.332 132.344 203.332 132.344Z" fill="black"/>
<path opacity="0.1" d="M203.332 132.344C203.332 132.344 204.125 132.478 204.05 131.754C203.736 131.724 203.431 131.634 203.152 131.486C202.704 131.192 202.385 130.735 202.263 130.21C201.661 130.21 201.797 130.553 201.797 130.553C201.563 131.479 203.332 132.344 203.332 132.344Z" fill="black"/>
<path opacity="0.1" d="M210.402 113.018C210.584 113.09 210.78 113.117 210.974 113.097C211.266 113.111 211.552 113.191 211.811 113.33C211.681 111.573 209.3 111.066 209.3 111.066C209.885 111.564 210.276 112.256 210.402 113.018Z" fill="black"/>
</g>
<path d="M199.011 119.694C199.627 124.738 201.352 130.824 205.839 130.265C210.327 129.705 215.884 122.717 215.268 117.67C214.652 112.623 210.504 108.997 206.02 109.556C201.535 110.115 198.391 114.654 199.011 119.694Z" fill="#E4E4E4"/>
<path d="M203.818 132.622C203.818 132.622 204.611 132.759 204.536 132.035C204.529 131.97 204.518 131.906 204.502 131.843C204.445 131.626 204.428 131.4 204.451 131.177C204.451 131.098 204.472 131.016 204.485 130.941C204.553 130.591 204.681 130.255 204.863 129.949L202.862 129.108C202.862 129.108 203.427 130.066 203.203 130.392C203.17 130.438 203.121 130.471 203.066 130.484C203.016 130.492 202.964 130.492 202.913 130.484H202.743C202.141 130.484 202.277 130.827 202.277 130.827C202.053 131.761 203.818 132.622 203.818 132.622Z" fill="#7B4BFF"/>
<path d="M203.077 130.488L204.438 131.174C204.438 131.095 204.458 131.013 204.472 130.937C204.111 130.796 203.553 130.546 203.199 130.388C203.171 130.435 203.128 130.47 203.077 130.488Z" fill="#3C3C3C"/>
<path d="M203.818 132.622C203.818 132.622 204.611 132.759 204.536 132.035C204.222 132.006 203.917 131.913 203.638 131.764C203.19 131.47 202.873 131.013 202.753 130.488C202.151 130.488 202.287 130.831 202.287 130.831C202.053 131.761 203.818 132.622 203.818 132.622Z" fill="#7B4BFF"/>
<path opacity="0.1" d="M203.818 132.622C203.818 132.622 204.611 132.759 204.536 132.035C204.222 132.006 203.917 131.913 203.638 131.764C203.19 131.47 202.873 131.013 202.753 130.488C202.151 130.488 202.287 130.831 202.287 130.831C202.053 131.761 203.818 132.622 203.818 132.622Z" fill="black"/>
<path opacity="0.1" d="M209.797 111.35C209.797 111.35 212.178 111.858 212.308 113.615C212.048 113.475 211.761 113.397 211.467 113.385C211.274 113.403 211.079 113.375 210.899 113.303C210.771 112.541 210.38 111.85 209.797 111.35Z" fill="#E4E4E4"/>
<path d="M203.941 130.941C204.149 130.958 204.351 131.021 204.533 131.124C204.715 131.228 204.873 131.37 204.996 131.541C205.118 131.711 205.202 131.907 205.243 132.114C205.284 132.32 205.279 132.533 205.231 132.738C204.931 133.75 203.699 134.069 202.896 134.745C202.093 135.421 201.709 136.502 201.61 137.555C201.525 138.553 201.657 139.557 201.996 140.498C202.335 141.439 202.873 142.294 203.574 143.003C204.295 143.72 205.166 144.269 205.877 144.997C206.693 145.907 207.365 146.939 207.867 148.057C208.322 148.85 208.621 149.724 208.749 150.63C208.868 152.075 208.146 153.457 207.286 154.617C206.425 155.776 205.394 156.826 204.727 158.109C204.275 158.99 204.005 159.954 203.934 160.943C203.862 161.932 203.989 162.925 204.308 163.863C204.347 164.013 204.432 164.148 204.55 164.247C204.581 164.27 204.616 164.286 204.653 164.294C204.691 164.302 204.729 164.302 204.767 164.294C204.804 164.286 204.839 164.27 204.87 164.247C204.901 164.224 204.926 164.195 204.945 164.161" stroke="#3C3C3C" stroke-miterlimit="10"/>
<path d="M208.123 130.687C208.227 130.806 208.287 130.958 208.293 131.117C208.298 131.276 208.249 131.432 208.153 131.558C208.053 131.682 207.926 131.781 207.782 131.848C207.638 131.915 207.481 131.948 207.323 131.946C206.938 131.946 206.51 131.826 206.193 132.052C206.087 132.144 206.001 132.259 205.943 132.387C205.884 132.515 205.853 132.655 205.853 132.797C205.856 133.079 205.827 133.361 205.768 133.637C205.69 133.863 205.564 134.068 205.401 134.241C205.215 134.459 204.982 134.63 204.72 134.742C204.152 134.965 203.495 134.763 202.913 134.948C202.148 135.191 201.736 136.025 201.505 136.8C201.189 137.725 201.131 138.72 201.338 139.675C201.538 140.287 201.797 140.878 202.11 141.439C202.423 142.002 202.596 142.633 202.614 143.278C202.617 143.601 202.529 143.918 202.359 144.192C202.188 144.465 201.944 144.684 201.654 144.822" stroke="#3C3C3C" stroke-miterlimit="10"/>
<path d="M207.163 152.833C206.248 154.061 205.901 156.023 204.404 156.322C203.631 156.476 202.866 156.075 202.175 155.691C200.566 154.785 198.909 153.872 197.071 153.574C195.234 153.275 193.206 153.704 192.002 155.114C191.182 156.082 190.845 157.379 190.123 158.422C189.183 159.685 187.836 160.578 186.313 160.947C184.801 161.311 183.243 161.445 181.692 161.345C181.117 161.327 180.491 161.283 180.062 160.899C179.782 160.588 179.553 160.235 179.382 159.852C178.644 158.603 177.184 157.917 175.745 157.825C174.305 157.732 172.883 158.168 171.553 158.72C170.872 159.001 170.192 159.324 169.464 159.252C168.443 159.149 167.691 158.319 167.062 157.519C165.43 155.431 164.045 153.158 162.934 150.747" stroke="#3C3C3C" stroke-miterlimit="10"/>
<path d="M174.928 266.253L178.331 265.179C179.283 264.459 179.011 263.591 178.579 262.942C178.427 262.734 178.232 262.562 178.008 262.437C177.783 262.312 177.535 262.237 177.279 262.218C177.053 262.18 176.837 262.093 176.646 261.964C176.438 261.838 176.263 261.662 176.136 261.453C175.903 261.053 175.785 260.596 175.796 260.132C175.796 260.132 172.155 258.904 171.107 259.95C170.921 260.141 170.763 260.357 170.638 260.592C170.276 261.331 170.084 262.142 170.076 262.966C170.076 262.966 169.845 264.136 169.491 265.474C169.137 266.812 174.928 266.253 174.928 266.253Z" fill="#2D293D"/>
<path d="M158.586 263.951L161.988 262.877C162.941 262.156 162.669 261.288 162.237 260.643C162.085 260.434 161.89 260.261 161.665 260.136C161.44 260.011 161.19 259.937 160.934 259.919C160.803 259.899 160.675 259.858 160.556 259.799C160.468 259.761 160.384 259.715 160.304 259.662C159.382 259.106 159.44 257.847 159.44 257.847C159.44 257.847 155.803 256.619 154.755 257.665C154.614 257.808 154.49 257.965 154.384 258.135C153.958 258.916 153.731 259.79 153.724 260.681C153.724 260.681 153.489 261.854 153.135 263.189C152.781 264.524 158.586 263.951 158.586 263.951Z" fill="#2D293D"/>
<path opacity="0.1" d="M171.107 259.95C170.921 260.141 170.763 260.357 170.638 260.592L176.129 261.45C175.896 261.05 175.778 260.592 175.789 260.129C175.789 260.129 172.155 258.904 171.107 259.95Z" fill="black"/>
<path opacity="0.1" d="M154.398 258.118L154.357 259.148C155.16 260.609 159.321 260.458 160.553 259.789C160.465 259.751 160.381 259.705 160.301 259.652C159.382 259.106 159.44 257.847 159.44 257.847C159.44 257.847 155.803 256.619 154.755 257.665C154.62 257.803 154.5 257.955 154.398 258.118Z" fill="black"/>
<path d="M153.911 253.603C154.152 254.067 154.354 254.55 154.513 255.048L154.37 258.78C155.248 260.376 160.154 260.046 160.835 259.22C161.515 258.393 162.312 256.2 161.577 255.789C160.842 255.377 160.304 253.466 160.304 253.466C160.304 253.466 161.094 253.686 162.417 252.224C163.741 250.763 163.492 247.39 163.288 246.577C163.084 245.764 163.424 243.081 163.424 243.081C163.424 243.081 163.448 241.187 163.846 240.59C164.244 239.993 165.177 236.521 165.177 236.521C165.177 236.521 165.221 235.341 165.901 234.751C166.582 234.161 167.092 231.769 167.092 231.769C167.501 231.183 167.695 230.471 167.64 229.756C167.545 228.569 168.531 227.33 168.531 227.33L170.318 222.287L171.965 218.513L172.71 220.794C172.71 220.794 172.744 226.002 172.516 227.083C172.288 228.164 171.896 231.035 171.896 231.035C171.896 231.035 172.761 232.96 172.278 234.552C171.794 236.144 171.805 239.595 171.805 239.595C171.805 239.595 171.124 246.718 171.464 247.297C171.805 247.877 171.716 249.294 171.716 249.294C171.716 249.294 169.634 253.38 170.222 253.97C170.811 254.561 170.563 256.115 170.563 256.115C170.563 256.115 169.253 256.063 169.794 256.653C170.335 257.243 170.668 260.218 170.668 260.218L176.309 261.1C176.851 260.368 177.308 259.576 177.67 258.739C178.487 257.024 177.592 257.171 176.844 256.955C176.095 256.739 176.592 256.269 177.504 255.751C178.416 255.233 177.949 253.922 177.949 253.922C177.949 253.922 176.677 251.552 177.153 251.38C177.63 251.209 177.803 247.949 177.803 247.949C177.803 247.949 178.885 244.11 178.691 243.06C178.497 242.011 179.576 239.544 179.576 239.544L180.018 236.58C181.086 234.931 181.528 232.949 181.263 230.998L181.44 226.414C181.44 226.414 183.091 217.58 183.451 213.095C183.679 210.227 183.792 206.299 183.849 203.849C183.88 202.477 183.89 201.564 183.89 201.564L163.724 198.652C163.655 199.671 163.493 200.681 163.241 201.671C162.992 202.786 162.611 204.223 162.036 206.018C160.382 211.164 161.128 215.072 161.128 215.072L161.063 221.645C161.063 221.645 159.113 225.971 159.43 227.498C159.621 228.4 159.712 229.321 159.702 230.243C159.702 230.243 155.35 239.681 155.667 242.484C155.983 245.287 154.081 249.617 154.081 249.617C154.081 249.617 153.475 252.735 153.911 253.603Z" fill="#3C3C3C"/>
<path opacity="0.05" d="M166.429 229.433L160.304 228.366C160.304 228.366 163.652 232.092 166.429 229.433Z" fill="black"/>
<path opacity="0.1" d="M161.42 222.328C161.42 222.328 161.124 224.517 162.441 225.395C162.427 225.395 160.052 224.911 161.42 222.328Z" fill="black"/>
<path opacity="0.1" d="M162.063 215.346C162.063 215.346 167.055 219.823 168.94 219.542C170.825 219.261 162.063 215.346 162.063 215.346Z" fill="black"/>
<path opacity="0.1" d="M173.992 231.735C173.992 231.735 177.871 232.785 177.926 234.373C177.98 235.962 173.992 231.735 173.992 231.735Z" fill="black"/>
<path opacity="0.05" d="M172.369 251.411C172.369 251.411 177.858 252.663 176.262 253.312C174.899 253.794 173.499 254.163 172.077 254.416C172.077 254.416 170.29 254.454 172.369 251.411Z" fill="black"/>
<g opacity="0.05">
<path opacity="0.05" d="M177.347 254.482C177.489 254.399 177.611 254.285 177.704 254.149C177.796 254.012 177.857 253.856 177.881 253.693L177.936 253.795C177.936 253.795 178.402 255.089 177.49 255.621L177.194 255.802C177.031 255.765 176.854 255.734 176.687 255.686C175.939 255.466 176.452 255.013 177.347 254.482Z" fill="black"/>
<path opacity="0.05" d="M170.237 253.826C170.089 253.679 170.11 253.315 170.22 252.852C170.429 253.277 170.521 253.751 170.483 254.224C170.43 254.076 170.346 253.94 170.237 253.826Z" fill="black"/>
<path opacity="0.05" d="M171.985 230.349C172.168 230.915 172.271 231.504 172.291 232.099C172.2 231.684 172.073 231.279 171.91 230.888C171.91 230.888 171.937 230.678 171.985 230.349Z" fill="black"/>
<path opacity="0.05" d="M159.416 227.375C159.386 227.204 159.376 227.03 159.386 226.857C159.44 227.2 159.478 227.543 159.502 227.831C159.478 227.68 159.44 227.529 159.416 227.375Z" fill="black"/>
<path opacity="0.05" d="M171.479 247.153C171.383 246.81 171.348 246.452 171.376 246.097C171.535 246.524 171.611 246.978 171.598 247.435C171.569 247.337 171.529 247.242 171.479 247.153Z" fill="black"/>
<path opacity="0.05" d="M169.988 256.022C170.245 256.981 170.425 257.96 170.525 258.949L176.166 259.83C176.708 259.099 177.165 258.307 177.527 257.47C177.599 257.319 177.657 257.182 177.704 257.058C178.045 257.23 178.157 257.59 177.67 258.609C177.308 259.447 176.851 260.24 176.309 260.973L170.668 260.091C170.668 260.091 170.358 257.096 169.817 256.506C169.538 256.218 169.722 256.084 169.988 256.022Z" fill="black"/>
<path opacity="0.05" d="M177.786 247.826C177.786 247.826 177.616 251.085 177.14 251.257C176.925 250.708 176.799 250.19 177 250.114C177.476 249.943 177.647 246.683 177.647 246.683C177.647 246.683 178.732 242.844 178.538 241.794C178.344 240.745 179.423 238.281 179.423 238.281L179.865 235.317C180.933 233.667 181.375 231.684 181.11 229.732L181.284 225.148C181.284 225.148 182.937 216.314 183.295 211.833C183.526 208.961 183.635 205.036 183.696 202.587C183.696 202.144 183.713 201.75 183.717 201.417L183.88 201.441C183.88 201.441 183.88 202.353 183.839 203.726C183.785 206.175 183.669 210.104 183.441 212.972C183.08 217.456 181.43 226.29 181.43 226.29L181.253 230.874C181.518 232.825 181.076 234.807 180.008 236.456L179.566 239.42C179.566 239.42 178.487 241.887 178.681 242.937C178.875 243.987 177.786 247.826 177.786 247.826Z" fill="black"/>
<path opacity="0.05" d="M160.692 257.954C161.178 257.298 161.513 256.542 161.675 255.741C162.233 256.29 161.488 258.31 160.835 259.093C160.182 259.875 155.251 260.249 154.37 258.654L154.404 257.755C155.629 259.069 160.039 258.732 160.692 257.954Z" fill="black"/>
<path opacity="0.05" d="M153.771 252.334C154.011 252.798 154.212 253.281 154.374 253.778L154.346 254.44C154.251 254.197 154.112 253.868 153.914 253.476C153.779 253.1 153.724 252.699 153.754 252.3L153.771 252.334Z" fill="black"/>
<path opacity="0.05" d="M160.58 253.346C160.415 252.975 160.275 252.594 160.161 252.204C160.161 252.204 160.951 252.423 162.271 250.962C163.237 249.898 163.366 247.822 163.292 246.457C163.496 247.27 163.744 250.639 162.42 252.104C161.549 253.061 160.917 253.295 160.58 253.346Z" fill="black"/>
<path opacity="0.05" d="M163.424 242.961C163.305 243.888 163.238 244.822 163.223 245.757C163.196 245.575 163.169 245.414 163.142 245.314C162.938 244.505 163.278 241.818 163.278 241.818C163.278 241.818 163.305 239.928 163.703 239.328C164.101 238.727 165.03 235.262 165.03 235.262C165.03 235.262 165.074 234.078 165.755 233.492C166.435 232.905 166.949 230.507 166.949 230.507C167.355 229.919 167.547 229.208 167.494 228.493C167.398 227.306 168.385 226.067 168.385 226.067L170.175 221.024L171.818 217.25L172.577 219.504C172.577 219.504 172.577 219.786 172.577 220.225L171.964 218.393L170.328 222.167L168.542 227.21C168.542 227.21 167.555 228.448 167.65 229.635C167.705 230.351 167.511 231.063 167.102 231.649C167.102 231.649 166.589 234.051 165.911 234.631C165.234 235.211 165.187 236.401 165.187 236.401C165.187 236.401 164.254 239.87 163.856 240.467C163.458 241.064 163.424 242.961 163.424 242.961Z" fill="black"/>
</g>
<path d="M162.805 155.859L163.091 157.598L163.043 158.367L163.006 158.933L164.952 159.211L165.187 158.809C165.622 158.085 166.517 156.614 166.8 156.408C167.174 156.113 168.001 151.34 167.215 151.604C166.735 151.77 166.333 152.11 166.088 152.558C166.088 152.558 162.227 152.833 162.805 155.859Z" fill="#FFCDD3"/>
<path opacity="0.1" d="M163.006 158.933L164.952 159.211L165.187 158.809C164.936 158.496 164.585 158.28 164.194 158.199C163.803 158.119 163.396 158.178 163.043 158.367L163.006 158.933Z" fill="black"/>
<path d="M162.475 159.845L165.03 160.532L165.102 160.147L165.285 159.118C165.152 158.924 164.981 158.758 164.784 158.63C164.586 158.503 164.366 158.416 164.135 158.375C163.904 158.334 163.667 158.339 163.438 158.391C163.21 158.442 162.993 158.539 162.802 158.675L162.655 159.204L162.475 159.845Z" fill="#DCE6F2"/>
<path d="M204.393 157.667L207.092 159.262L207.36 158.747C207.643 158.205 208.065 157.375 208.184 157.09C208.364 156.638 209.545 156.102 209.545 156.102C212.532 153.437 209.205 150.918 209.205 150.918C207.527 147.162 205.312 152.02 205.312 152.02C205.312 152.02 204.934 154.61 205.125 154.795C205.316 154.98 205.292 155.687 205.292 155.687C205.007 156.187 204.765 156.711 204.567 157.252C204.444 157.502 204.393 157.667 204.393 157.667Z" fill="#FFCDD3"/>
<path opacity="0.1" d="M204.393 157.667L207.092 159.262L207.36 158.748C206.983 158.404 205.659 157.224 205.196 157.259C204.979 157.281 204.76 157.281 204.543 157.259C204.444 157.502 204.393 157.667 204.393 157.667Z" fill="black"/>
<path d="M204.08 158.49L207.115 160.147L207.204 159.461L207.265 159.001C207.265 159.001 205.53 157.382 204.999 157.42C204.73 157.448 204.458 157.436 204.193 157.385L204.135 157.948L204.08 158.49Z" fill="#DCE6F2"/>
<path d="M169.869 167.616C169.869 167.616 183.298 169.675 180.807 168.748C179.076 168.103 178.426 166.954 178.32 165.698C178.291 164.622 178.504 163.554 178.943 162.573C179.294 161.73 179.73 160.925 180.243 160.171C180.243 160.171 170.151 154.051 172.015 159.331C172.303 160.13 172.469 160.969 172.505 161.818C172.535 162.66 172.413 163.501 172.145 164.299C171.703 165.594 170.915 166.742 169.869 167.616Z" fill="#FFCDD3"/>
<path opacity="0.1" d="M172.029 159.317C172.317 160.116 172.482 160.955 172.519 161.804C173.458 162.662 174.527 162.652 175.891 162.703C176.946 162.744 178.099 163.046 178.953 162.569C179.304 161.727 179.74 160.922 180.253 160.168C180.253 160.168 170.151 154.037 172.029 159.317Z" fill="black"/>
<path d="M176.262 163.07C179.344 163.07 181.842 160.551 181.842 157.444C181.842 154.336 179.344 151.817 176.262 151.817C173.18 151.817 170.682 154.336 170.682 157.444C170.682 160.551 173.18 163.07 176.262 163.07Z" fill="#FFCDD3"/>
<path opacity="0.1" d="M169.869 167.616C169.869 167.616 183.298 169.675 180.807 168.748C179.076 168.103 178.426 166.954 178.32 165.698C177.677 164.94 176.347 164.357 175.493 164.041C174.712 163.744 173.858 163.697 173.05 163.907C172.732 163.99 172.427 164.118 172.145 164.288C171.704 165.588 170.917 166.739 169.869 167.616Z" fill="black"/>
<path opacity="0.1" d="M162.475 159.845L165.03 160.532L165.102 160.147C164.84 159.754 164.465 159.452 164.028 159.282C163.59 159.112 163.111 159.082 162.655 159.197L162.475 159.845Z" fill="black"/>
<path opacity="0.1" d="M204.08 158.49L207.115 160.147L207.204 159.461C206.222 158.881 205.198 158.375 204.142 157.948L204.08 158.49Z" fill="black"/>
<path opacity="0.1" d="M163.224 201.674C168.416 202.703 175.813 204.076 177 203.764C177.99 203.499 181.117 203.654 183.832 203.853C183.863 202.48 183.873 201.568 183.873 201.568L163.707 198.655C163.638 199.674 163.476 200.685 163.224 201.674Z" fill="black"/>
<path d="M158.079 200.237C158.079 200.237 175.166 203.88 177.034 203.386C178.902 202.892 188.354 203.873 188.354 203.873C192.509 206.92 190.892 202.597 190.892 202.597C190.892 202.597 191.352 200.391 190.892 198.576C190.599 197.245 190.416 195.892 190.345 194.531C190.345 194.531 190.545 191.701 190.055 191.018C189.565 190.335 189.137 185.587 189.137 185.587C189.137 185.587 188.797 182.355 188.865 181.648C188.933 180.942 188.827 178.948 188.827 178.948L188.344 175.617C191.876 175.274 202.815 169.078 202.815 169.078C203.417 166.879 207.599 161.832 207.599 161.832C207.671 161.397 207.797 160.973 207.973 160.569C208.286 159.825 204.125 158.168 204.125 158.168C204.125 158.168 200.834 161.921 200.14 162.933C199.446 163.945 197.119 165.798 197.119 165.798C196.776 165.752 196.427 165.785 196.098 165.894H196.044C195.277 166.165 194.554 166.548 193.897 167.03C192.842 166.964 191.803 167.313 190.998 168.004C190.998 168.004 189.086 167.661 188.745 167.963C188.405 168.265 186.779 167.887 186.779 167.887C186.779 167.887 185.272 164.326 184.156 165.3C183.04 166.275 178.463 166.052 178.463 166.052C177.888 165.211 176.422 164.566 175.51 164.23C174.729 163.932 173.876 163.884 173.067 164.093C172.717 164.18 172.384 164.327 172.084 164.528L169.205 167.16C169.205 167.16 168.446 166.09 168.548 165.856C168.65 165.623 167.63 165.393 167.63 165.393C167.63 165.393 166.269 164.916 165.775 164.755C165.282 164.594 164.772 165.136 164.727 165.184C164.96 164.524 165.067 163.825 165.04 163.125C164.935 162.223 165.666 161.448 165.666 161.448C164.183 157.331 160.348 160.576 160.348 160.576C160.348 160.576 159.841 162.782 160.185 163.647C160.529 164.511 159.709 166.278 159.784 166.755C159.858 167.232 159.549 168.024 159.515 168.923C159.481 169.822 159.886 171.541 160.137 172.306C160.389 173.071 162.574 174.862 162.574 174.862C162.574 174.862 162.611 177.562 163.537 179.161C164.462 180.76 163.649 186.074 163.649 186.074C163.649 186.074 162.553 190.191 161.328 191.474C160.103 192.757 158.079 200.237 158.079 200.237Z" fill="#3C3C3C"/>
<path opacity="0.1" d="M184.322 170.114C184.322 170.114 184.897 168.573 185.37 168.45C185.844 168.295 186.307 168.107 186.755 167.887L186.476 167.294C186.476 167.294 184.697 167.712 184.394 168.223C184.091 168.735 184.322 170.114 184.322 170.114Z" fill="black"/>
<path opacity="0.1" d="M193.873 167.03C193.951 167.503 198.106 168.093 198.106 168.093L196.064 165.877H196.013C195.248 166.154 194.527 166.542 193.873 167.03Z" fill="black"/>
<path opacity="0.1" d="M183.808 182.918C183.856 182.866 172.778 195.907 164.87 187.817C164.884 187.817 177.762 190.092 183.808 182.918Z" fill="black"/>
<path opacity="0.1" d="M186.69 176.173C185.986 177.652 185.109 179.041 184.077 180.31C182.952 181.717 181.606 182.929 180.093 183.899C180.093 183.899 186.551 177.044 186.69 176.173Z" fill="black"/>
<path opacity="0.1" d="M189.041 168.844C189.041 168.844 187.81 173.394 185.033 174.848L189.041 168.844Z" fill="black"/>
<path opacity="0.1" d="M190.641 169.373C190.671 169.287 191.44 173.04 186.918 174.924C186.918 174.924 188.831 174.351 190.641 169.373Z" fill="black"/>
<path opacity="0.1" d="M163.152 165.215C163.224 165.215 160.903 166.587 160.263 167.232C160.263 167.239 161.822 165.074 163.152 165.215Z" fill="black"/>
<path d="M177.575 162.604C177.521 162.902 177.355 163.167 177.112 163.345C176.946 163.421 176.764 163.455 176.582 163.444C174.88 163.486 173.104 163.492 171.556 162.758C171.267 162.642 171.012 162.456 170.811 162.216C170.591 161.83 170.456 161.4 170.413 160.957C170.222 160.106 169.78 159.341 169.474 158.528C168.959 157.16 168.825 155.676 169.086 154.236C169.146 153.791 169.308 153.366 169.559 152.994C170.035 152.363 170.865 152.133 171.481 151.639C172.097 151.145 172.502 150.369 173.223 150.009C173.866 149.666 174.632 149.752 175.333 149.903C176.716 150.194 178.03 150.751 179.205 151.543C179.6 151.807 180.032 152.112 180.501 152.044C180.903 151.93 181.253 151.679 181.491 151.333C181.802 152.115 181.919 152.962 181.832 153.8C181.811 153.923 181.811 154.048 181.832 154.171C181.885 154.319 181.969 154.454 182.077 154.569C182.478 155.077 182.709 155.866 182.277 156.343C182.09 156.555 181.808 156.662 181.624 156.874C181.284 157.255 181.376 157.828 181.365 158.336C181.377 158.512 181.326 158.687 181.223 158.83C181.13 158.908 181.019 158.962 180.9 158.986C180.781 159.01 180.658 159.003 180.542 158.967C180.307 158.887 180.058 158.853 179.811 158.868C179.546 158.946 179.315 159.112 179.154 159.338C178.3 160.309 177.953 161.403 177.575 162.604Z" fill="#3C3C3C"/>
<g opacity="0.1">
<path opacity="0.1" d="M170.638 161.784C170.839 162.024 171.096 162.21 171.386 162.326C172.934 163.046 174.707 163.039 176.412 163.012C176.594 163.019 176.775 162.985 176.942 162.913C177.186 162.734 177.352 162.467 177.405 162.168C177.783 160.971 178.13 159.876 178.953 158.898C179.113 158.672 179.345 158.506 179.61 158.428C179.858 158.414 180.106 158.448 180.341 158.528C180.457 158.564 180.581 158.571 180.7 158.546C180.819 158.522 180.93 158.467 181.022 158.387C181.126 158.245 181.176 158.07 181.165 157.893C181.165 157.389 181.093 156.816 181.42 156.435C181.604 156.219 181.886 156.113 182.077 155.903C182.2 155.748 182.279 155.561 182.305 155.363C182.332 155.166 182.304 154.965 182.226 154.781C182.505 155.269 182.614 155.886 182.25 156.288C182.06 156.497 181.777 156.607 181.593 156.819C181.253 157.2 181.348 157.773 181.338 158.281C181.35 158.457 181.299 158.632 181.195 158.775C181.102 158.853 180.991 158.907 180.872 158.931C180.754 158.955 180.631 158.949 180.515 158.912C180.28 158.832 180.031 158.799 179.783 158.813C179.518 158.891 179.287 159.056 179.127 159.283C178.303 160.261 177.953 161.341 177.579 162.556C177.525 162.854 177.359 163.119 177.116 163.297C176.949 163.373 176.767 163.407 176.585 163.396C174.884 163.437 173.108 163.444 171.56 162.71C171.27 162.595 171.012 162.408 170.811 162.168C170.711 162.028 170.635 161.871 170.586 161.705L170.638 161.784Z" fill="black"/>
<path opacity="0.1" d="M181.804 154.013C181.732 153.928 181.677 153.829 181.644 153.721C181.623 153.6 181.623 153.476 181.644 153.354C181.72 152.663 181.657 151.963 181.461 151.296L181.491 151.261C181.795 152.045 181.906 152.892 181.815 153.728C181.804 153.823 181.8 153.918 181.804 154.013Z" fill="black"/>
</g>
<path opacity="0.1" d="M178.443 166.052C178.443 166.052 171.437 166.71 170.852 165.63L178.443 166.052Z" fill="black"/>
<path opacity="0.1" d="M165.006 162.617C165.006 162.617 161.134 162.473 160.243 163.904L165.006 162.617Z" fill="black"/>
</g>
<defs>
<clipPath id="clip0">
<rect width="328" height="338" fill="white"/>
</clipPath>
</defs>
</svg>
