<svg width="359" height="312" viewBox="0 0 359 312" fill="none" xmlns="http://www.w3.org/2000/svg">
<g clip-path="url(#clip0)">
<path d="M359 308.132L102.011 312L0 293.95H159.253L359 308.132Z" fill="#E4E4E4"/>
<path d="M295.936 82.0826C318.641 82.0826 337.046 63.7078 337.046 41.0413C337.046 18.3748 318.641 0 295.936 0C273.232 0 254.827 18.3748 254.827 41.0413C254.827 63.7078 273.232 82.0826 295.936 82.0826Z" fill="#FF6584"/>
<path d="M72.7244 296.095C72.7244 296.095 73.3257 283.516 85.653 284.979L72.7244 296.095Z" fill="#3F3D56"/>
<path d="M69.2413 284.125C72.6487 284.125 75.411 281.367 75.411 277.965C75.411 274.564 72.6487 271.806 69.2413 271.806C65.8338 271.806 63.0715 274.564 63.0715 277.965C63.0715 281.367 65.8338 284.125 69.2413 284.125Z" fill="#7B4BFF"/>
<path d="M69.9789 288.338H68.2373V300.508H69.9789V288.338Z" fill="#3F3D56"/>
<path d="M275.905 298.244C275.905 298.244 276.506 285.665 288.834 287.127L275.905 298.244Z" fill="#3F3D56"/>
<path d="M272.422 286.274C275.829 286.274 278.592 283.516 278.592 280.114C278.592 276.712 275.829 273.955 272.422 273.955C269.015 273.955 266.252 276.712 266.252 280.114C266.252 283.516 269.015 286.274 272.422 286.274Z" fill="#7B4BFF"/>
<path d="M273.16 290.486H271.418V302.657H273.16V290.486Z" fill="#3F3D56"/>
<path d="M305.607 300.393C305.607 300.393 306.209 287.814 318.536 289.276L305.607 300.393Z" fill="#3F3D56"/>
<path d="M302.124 288.422C305.532 288.422 308.294 285.665 308.294 282.263C308.294 278.861 305.532 276.103 302.124 276.103C298.717 276.103 295.955 278.861 295.955 282.263C295.955 285.665 298.717 288.422 302.124 288.422Z" fill="#7B4BFF"/>
<path d="M302.862 292.635H301.12V304.806H302.862V292.635Z" fill="#3F3D56"/>
<path d="M121.367 290.079C121.367 290.079 121.969 277.5 134.296 278.962L121.367 290.079Z" fill="#3F3D56"/>
<path d="M117.884 278.108C121.292 278.108 124.054 275.351 124.054 271.949C124.054 268.547 121.292 265.789 117.884 265.789C114.477 265.789 111.714 268.547 111.714 271.949C111.714 275.351 114.477 278.108 117.884 278.108Z" fill="#7B4BFF"/>
<path d="M118.622 282.321H116.88V294.492H118.622V282.321Z" fill="#3F3D56"/>
<path d="M29.6776 292.228C29.6776 292.228 30.2789 279.649 42.6062 281.111L29.6776 292.228Z" fill="#3F3D56"/>
<path d="M26.1944 280.257C29.6019 280.257 32.3642 277.499 32.3642 274.098C32.3642 270.696 29.6019 267.938 26.1944 267.938C22.787 267.938 20.0247 270.696 20.0247 274.098C20.0247 277.499 22.787 280.257 26.1944 280.257Z" fill="#7B4BFF"/>
<path d="M26.9321 284.47H25.1906V296.641H26.9321V284.47Z" fill="#3F3D56"/>
<path d="M178.849 270.369C215.974 270.369 246.069 240.324 246.069 203.261C246.069 166.198 215.974 136.153 178.849 136.153C141.725 136.153 111.629 166.198 111.629 203.261C111.629 240.324 141.725 270.369 178.849 270.369Z" fill="#3F3D56"/>
<path d="M136.53 208.648C138.2 206.653 140.288 205.048 142.646 203.946C145.005 202.845 147.578 202.274 150.182 202.274C152.786 202.274 155.358 202.845 157.717 203.946C160.076 205.048 162.164 206.653 163.834 208.648C166.69 205.926 168.665 202.411 169.503 198.558C170.34 194.705 170.003 190.69 168.534 187.03C167.065 183.37 164.532 180.233 161.261 178.024C157.99 175.814 154.131 174.634 150.182 174.634C146.233 174.634 142.374 175.814 139.103 178.024C135.832 180.233 133.299 183.37 131.83 187.03C130.361 190.69 130.024 194.705 130.861 198.558C131.699 202.411 133.674 205.926 136.53 208.648Z" fill="white"/>
<path d="M189.911 208.648C191.58 206.653 193.668 205.048 196.027 203.946C198.386 202.845 200.958 202.274 203.562 202.274C206.167 202.274 208.739 202.845 211.098 203.946C213.457 205.048 215.545 206.653 217.214 208.648C220.071 205.926 222.045 202.411 222.883 198.558C223.721 194.705 223.383 190.69 221.915 187.03C220.446 183.37 217.912 180.233 214.642 178.024C211.371 175.814 207.512 174.634 203.562 174.634C199.613 174.634 195.754 175.814 192.483 178.024C189.212 180.233 186.679 183.37 185.21 187.03C183.741 190.69 183.404 194.705 184.242 198.558C185.08 202.411 187.054 205.926 189.911 208.648Z" fill="white"/>
<path d="M143.438 194.44C147.194 194.44 150.238 191.4 150.238 187.65C150.238 183.901 147.194 180.861 143.438 180.861C139.682 180.861 136.637 183.901 136.637 187.65C136.637 191.4 139.682 194.44 143.438 194.44Z" fill="#3F3D56"/>
<path d="M196.816 194.44C200.572 194.44 203.617 191.4 203.617 187.65C203.617 183.901 200.572 180.861 196.816 180.861C193.06 180.861 190.015 183.901 190.015 187.65C190.015 191.4 193.06 194.44 196.816 194.44Z" fill="#3F3D56"/>
<path d="M130.411 227.933C134.779 227.933 138.32 224.398 138.32 220.038C138.32 215.678 134.779 212.143 130.411 212.143C126.044 212.143 122.503 215.678 122.503 220.038C122.503 224.398 126.044 227.933 130.411 227.933Z" fill="#FF6584"/>
<path d="M221.356 227.933C225.724 227.933 229.264 224.398 229.264 220.038C229.264 215.678 225.724 212.143 221.356 212.143C216.988 212.143 213.448 215.678 213.448 220.038C213.448 224.398 216.988 227.933 221.356 227.933Z" fill="#FF6584"/>
<path d="M175.884 204.248L169.952 229.907L179.838 220.038L175.884 204.248Z" fill="#FF6584"/>
<path d="M206.36 302.936L199.626 297.294L199.783 302.936H197.691L197.524 296.97L188.432 302.936H184.626L197.456 294.517L196.959 276.839L196.588 263.488L198.674 263.431L199.051 276.839L199.547 294.502L209.611 302.936H206.36Z" fill="#3F3D56"/>
<path d="M174.724 302.936L167.99 297.294L168.147 302.936H166.061L165.894 296.97L156.802 302.936H152.996L165.821 294.517L165.324 276.839L164.953 263.488L167.044 263.431L167.421 276.839L167.912 294.502L177.976 302.936H174.724Z" fill="#3F3D56"/>
<path d="M179.838 131.219C177.993 131.219 176.366 132.649 175.278 134.846C174.32 131.542 172.305 129.245 169.953 129.245C169.793 129.261 169.634 129.287 169.478 129.324C168.573 125.797 166.472 123.323 164.021 123.323C160.746 123.323 158.09 127.742 158.09 133.192C158.09 138.643 160.746 143.061 164.021 143.061C164.181 143.045 164.34 143.019 164.496 142.982C165.401 146.509 167.502 148.982 169.953 148.982C171.797 148.982 173.424 147.552 174.512 145.355C175.471 148.659 177.485 150.956 179.838 150.956C183.114 150.956 185.769 146.538 185.769 141.087C185.769 135.637 183.114 131.219 179.838 131.219Z" fill="#3F3D56"/>
<path d="M115.755 228.692C113.158 228.692 110.588 228.182 108.189 227.19C105.79 226.198 103.611 224.744 101.775 222.911C99.939 221.078 98.4827 218.902 97.4892 216.508C96.4956 214.113 95.9842 211.546 95.9842 208.954V199.086C95.9842 193.851 98.0672 188.83 101.775 185.129C105.483 181.427 110.511 179.348 115.755 179.348V228.692Z" fill="#7B4BFF"/>
<path d="M241.944 179.348C244.54 179.348 247.111 179.858 249.51 180.85C251.908 181.842 254.088 183.296 255.924 185.129C257.76 186.962 259.216 189.138 260.209 191.532C261.203 193.927 261.714 196.494 261.714 199.085V208.954C261.714 211.546 261.203 214.113 260.209 216.508C259.216 218.902 257.76 221.078 255.924 222.911C254.088 224.744 251.908 226.198 249.51 227.19C247.111 228.182 244.54 228.692 241.944 228.692V179.348H241.944Z" fill="#7B4BFF"/>
<path d="M252.304 200.636H249.167C249.167 160.92 216.802 128.609 177.019 128.609C137.237 128.609 104.872 160.92 104.872 200.636H101.735C101.735 159.193 135.507 125.477 177.019 125.477C218.532 125.477 252.304 159.193 252.304 200.636Z" fill="#7B4BFF"/>
<path d="M69.3708 140.279L69.3714 140.278L67.8977 139.665L61.6797 137.041L59.4509 136.1L59.2798 136.531L56.2858 144.078L64.7119 147.638L64.7561 147.678L64.1883 149.015C64.1106 149.137 64.0442 149.266 63.9902 149.401C63.5924 150.403 64.3437 151.401 65.0538 151.682C65.764 151.962 66.6622 151.377 67.0599 150.375C67.4523 149.386 67.0688 148.129 66.3768 147.826L66.3774 147.825L64.9037 147.212L59.8623 145.255L62.7429 137.994L62.3159 137.826L59.4344 145.089L58.811 144.847L61.7038 137.555L61.78 137.588L67.7059 140.092L67.7501 140.131L67.1823 141.468C67.1046 141.59 67.0383 141.719 66.9842 141.854C66.5864 142.856 67.3376 143.854 68.0478 144.135C68.758 144.415 69.6562 143.83 70.0539 142.828C70.4462 141.839 70.0628 140.582 69.3708 140.279Z" fill="#3F3D56"/>
<path d="M98.5349 158.807C95.4761 157.061 96.0882 153.229 96.0882 153.229C96.0112 150.74 93.9514 151.093 93.9514 151.093L93.2018 151.263C92.8535 151.102 92.47 151.031 92.087 151.058L90.9467 151.249C93.5434 151.858 93.33 154.027 93.33 154.027L93.6938 156.563L86.8897 153.822L87.6709 151.984C87.7789 151.814 87.871 151.634 87.9461 151.448C88.4985 150.055 87.4552 148.67 86.4688 148.28C85.4824 147.89 84.235 148.703 83.6825 150.095C83.1376 151.469 83.6702 153.214 84.6314 153.635L84.6305 153.637L86.6774 154.488L86.6926 154.44L98.5349 158.807ZM95.0797 154.351L95.2978 156.778C94.5274 155.699 94.1655 154.382 94.2765 153.062C94.2584 152.592 94.0997 152.138 93.8208 151.759C94.2495 152.034 94.594 152.421 94.8161 152.878C95.0383 153.336 95.1295 153.845 95.0797 154.351V154.351Z" fill="#3F3D56"/>
<path d="M46.633 122.912L46.6339 122.91L44.587 122.059L36.0325 118.74L38.1916 116.822C38.614 116.26 39.2377 115.882 39.9324 115.769C40.627 115.655 41.3388 115.814 41.9187 116.212L41.2487 115.218C41.2487 115.218 39.9891 113.553 38.226 115.315C38.226 115.315 36.0444 118.526 32.6177 117.707L44.3206 122.652L44.3821 122.708L43.5935 124.564C43.4855 124.734 43.3934 124.913 43.3183 125.1C42.7659 126.492 43.8092 127.878 44.7956 128.268C45.7819 128.658 47.0294 127.845 47.5819 126.452C48.1268 125.079 47.5942 123.334 46.633 122.912Z" fill="#3F3D56"/>
<path d="M77.9513 112.046L77.1626 113.903C77.0547 114.073 76.9626 114.252 76.8875 114.439C76.335 115.831 77.3784 117.216 78.3648 117.606C79.3511 117.996 80.5986 117.184 81.1511 115.791C81.696 114.417 81.1634 112.672 80.2023 112.251L80.2031 112.249L78.1563 111.398L71.1543 108.681L75.155 98.5962L74.5621 98.3617L70.5599 108.45L69.6941 108.114L73.7119 97.9864L73.8177 98.0311L82.0481 101.509L82.1096 101.564L81.321 103.421C81.213 103.591 81.1209 103.77 81.0459 103.957C80.4934 105.349 81.5368 106.734 82.5231 107.124C83.5095 107.514 84.757 106.702 85.3094 105.309C85.8544 103.935 85.3218 102.19 84.3606 101.769L84.3614 101.767L82.3146 100.916L73.9501 97.386L73.9497 97.3859L73.6784 97.2714L70.5828 95.965L66.1869 107.046L77.8898 111.991L77.9513 112.046Z" fill="#3F3D56"/>
<path d="M40.8643 55.297L40.8657 55.2941L37.3423 53.8292L22.6162 48.1142L26.3329 44.8129C26.3329 44.8129 28.8052 41.3883 32.7489 43.7637L31.5956 42.0523C31.5956 42.0523 29.4273 39.1864 26.3921 42.2186C26.3921 42.2186 22.6366 47.7457 16.7377 46.3368L36.8837 54.8494L36.9894 54.9451L35.6319 58.1407C35.446 58.433 35.2875 58.7418 35.1582 59.063C34.2072 61.4602 36.0033 63.8447 37.7013 64.5161C39.3992 65.1875 41.5467 63.7884 42.4977 61.3912C43.4357 59.0267 42.519 56.0228 40.8643 55.297Z" fill="#3F3D56"/>
<path d="M51.6775 103.304C44.3643 99.1293 45.8277 89.969 45.8277 89.969C45.6437 84.018 40.7188 84.8604 40.7188 84.8604L38.9265 85.2687C38.0938 84.8829 37.177 84.7136 36.2612 84.7766L33.5347 85.2347C39.7432 86.691 39.2331 91.8761 39.2331 91.8761L40.1029 97.9386L23.8349 91.3869L25.7028 86.9901C25.9609 86.5841 26.1811 86.1553 26.3607 85.7091C27.6815 82.3796 25.1869 79.0678 22.8286 78.1354C20.4702 77.2029 17.4877 79.1461 16.1668 82.4755C14.864 85.7596 16.1372 89.9318 18.4354 90.9398L18.4334 90.9438L23.3272 92.9784L23.3636 92.8632L51.6775 103.304ZM43.4164 92.6513L43.9398 98.4744C40.8683 94.4038 41.4961 89.5676 41.4961 89.5676C41.4528 88.4445 41.0733 87.3601 40.4066 86.4545C43.9349 88.5624 43.4163 92.6513 43.4163 92.6513H43.4164Z" fill="#3F3D56"/>
</g>
<defs>
<clipPath id="clip0">
<rect width="359" height="312" fill="white"/>
</clipPath>
</defs>
</svg>
