<svg width="681" height="681" viewBox="0 0 681 681" fill="none" xmlns="http://www.w3.org/2000/svg">
<path d="M600.844 535.973H80.0532C79.5222 535.976 78.9958 535.875 78.5042 535.674C78.0126 535.474 77.5655 535.179 77.1888 534.805C76.8121 534.432 76.513 533.988 76.309 533.498C76.105 533.009 76 532.485 76 531.955C76 531.425 76.105 530.9 76.309 530.411C76.513 529.922 76.8121 529.478 77.1888 529.104C77.5655 528.731 78.0126 528.435 78.5042 528.235C78.9958 528.035 79.5222 527.933 80.0532 527.937H600.844C601.375 527.933 601.902 528.035 602.393 528.235C602.885 528.435 603.332 528.731 603.709 529.104C604.086 529.478 604.384 529.922 604.589 530.411C604.793 530.9 604.898 531.425 604.898 531.955C604.898 532.485 604.793 533.009 604.589 533.498C604.384 533.988 604.086 534.432 603.709 534.805C603.332 535.179 602.885 535.474 602.393 535.674C601.902 535.875 601.375 535.976 600.844 535.973V535.973Z" fill="#E4E4E4"/>
<path d="M379.454 314.263H176.936C165.62 314.25 154.771 309.759 146.77 301.775C138.768 293.79 134.268 282.965 134.255 271.673V69.5885C134.268 58.2971 138.769 47.4719 146.77 39.4878C154.772 31.5037 165.62 27.0126 176.936 27H379.454C390.77 27.0126 401.619 31.5037 409.62 39.4878C417.621 47.4719 422.122 58.2971 422.135 69.5885V271.673C422.123 282.965 417.622 293.79 409.62 301.775C401.619 309.759 390.77 314.25 379.454 314.263V314.263Z" fill="#7B4BFF"/>
<path d="M503.963 407.98H301.444C290.129 407.968 279.28 403.477 271.279 395.493C263.277 387.509 258.776 376.683 258.763 365.392V163.307C258.776 152.016 263.277 141.19 271.278 133.206C279.28 125.221 290.129 120.73 301.444 120.717H503.963C515.279 120.73 526.127 125.221 534.129 133.206C542.13 141.19 546.631 152.016 546.644 163.307V365.392C546.631 376.683 542.13 387.509 534.129 395.493C526.127 403.477 515.278 407.968 503.963 407.98Z" fill="#3F3D56"/>
<path d="M154.752 651.817C154.17 651.817 153.612 651.586 153.2 651.175C152.789 650.765 152.557 650.208 152.557 649.627V610.213C152.557 609.632 152.789 609.075 153.2 608.665C153.612 608.254 154.17 608.023 154.752 608.023C155.334 608.023 155.892 608.254 156.303 608.665C156.715 609.075 156.946 609.632 156.946 610.213V649.627C156.946 650.208 156.715 650.765 156.303 651.175C155.892 651.586 155.334 651.817 154.752 651.817V651.817Z" fill="#CCCCCC"/>
<path d="M333.593 651.817C333.011 651.817 332.453 651.586 332.041 651.175C331.63 650.765 331.398 650.208 331.398 649.627V610.213C331.398 609.632 331.63 609.075 332.041 608.665C332.453 608.254 333.011 608.023 333.593 608.023C334.175 608.023 334.733 608.254 335.144 608.665C335.556 609.075 335.787 609.632 335.787 610.213V649.627C335.787 650.208 335.556 650.765 335.144 651.175C334.733 651.586 334.175 651.817 333.593 651.817Z" fill="#E4E4E4"/>
<path d="M348.954 651.817C348.372 651.817 347.814 651.586 347.402 651.175C346.991 650.765 346.76 650.208 346.76 649.627V610.213C346.76 609.632 346.991 609.075 347.402 608.665C347.814 608.254 348.372 608.023 348.954 608.023C349.536 608.023 350.094 608.254 350.505 608.665C350.917 609.075 351.148 609.632 351.148 610.213V649.627C351.148 650.208 350.917 650.765 350.505 651.175C350.094 651.586 349.536 651.817 348.954 651.817Z" fill="#E4E4E4"/>
<path d="M186.965 652.53C186.07 652.528 185.192 652.29 184.419 651.84L158.319 634.276C158.27 634.246 158.221 634.216 158.173 634.185C157.452 633.732 156.86 633.102 156.453 632.356C156.046 631.609 155.838 630.77 155.849 629.92C155.843 629.027 156.076 628.149 156.524 627.376C156.971 626.603 157.617 625.962 158.394 625.521L184.289 608.08C185.06 607.604 185.944 607.342 186.851 607.321C187.757 607.3 188.652 607.522 189.444 607.962C190.236 608.402 190.896 609.046 191.355 609.826C191.814 610.606 192.056 611.494 192.056 612.398V647.442C192.053 648.789 191.515 650.08 190.562 651.033C189.608 651.987 188.315 652.525 186.965 652.53V652.53ZM186.744 648.129C186.839 648.159 186.94 648.168 187.039 648.154C187.138 648.14 187.232 648.104 187.316 648.049C187.424 647.989 187.514 647.901 187.576 647.794C187.638 647.687 187.669 647.565 187.667 647.442V612.398C187.667 612.276 187.635 612.155 187.573 612.048C187.511 611.942 187.423 611.853 187.316 611.792C187.21 611.73 187.089 611.698 186.965 611.698C186.842 611.698 186.721 611.73 186.614 611.791L160.718 629.233C160.283 629.489 160.237 629.769 160.237 629.92C160.235 630.044 160.266 630.165 160.328 630.272C160.39 630.379 160.48 630.467 160.588 630.526L160.718 630.608L186.744 648.129Z" fill="#E4E4E4"/>
<path d="M523.407 651.817C522.825 651.817 522.267 651.586 521.855 651.175C521.444 650.765 521.213 650.208 521.213 649.627V610.213C521.213 609.632 521.444 609.075 521.855 608.665C522.267 608.254 522.825 608.023 523.407 608.023C523.989 608.023 524.547 608.254 524.959 608.665C525.37 609.075 525.601 609.632 525.601 610.213V649.627C525.601 650.208 525.37 650.765 524.959 651.175C524.547 651.586 523.989 651.817 523.407 651.817Z" fill="#CCCCCC"/>
<path d="M491.153 652.52C490.273 652.518 489.409 652.284 488.649 651.841C487.871 651.4 487.225 650.759 486.778 649.986C486.33 649.213 486.097 648.335 486.102 647.442V612.398C486.102 611.507 486.338 610.631 486.785 609.858C487.231 609.086 487.874 608.445 488.648 607.999C489.422 607.553 490.3 607.319 491.194 607.319C492.088 607.319 492.965 607.554 493.739 608L519.894 625.602C520.641 626.047 521.257 626.681 521.681 627.439C522.105 628.196 522.321 629.052 522.31 629.92C522.315 630.798 522.09 631.662 521.656 632.427C521.223 633.191 520.596 633.828 519.839 634.276L493.869 651.76C493.047 652.249 492.11 652.512 491.153 652.52V652.52ZM490.491 647.442C490.491 647.565 490.523 647.685 490.585 647.792C490.647 647.898 490.735 647.987 490.842 648.049C490.948 648.11 491.07 648.142 491.193 648.143C491.316 648.143 491.437 648.11 491.544 648.049L517.538 630.544C517.651 630.483 517.745 630.393 517.812 630.284C517.879 630.175 517.917 630.05 517.921 629.922V629.92C517.923 629.797 517.892 629.675 517.83 629.568C517.768 629.461 517.679 629.373 517.571 629.314L491.414 611.711C491.319 611.68 491.218 611.671 491.119 611.684C491.02 611.698 490.925 611.735 490.843 611.791C490.734 611.851 490.644 611.939 490.582 612.046C490.521 612.153 490.489 612.275 490.491 612.398L490.491 647.442Z" fill="#E4E4E4"/>
<path d="M224.971 558.231C239.514 558.231 251.304 546.467 251.304 531.955C251.304 517.443 239.514 505.679 224.971 505.679C210.428 505.679 198.639 517.443 198.639 531.955C198.639 546.467 210.428 558.231 224.971 558.231Z" fill="#7B4BFF"/>
</svg>
