<svg width="274" height="323" viewBox="0 0 274 323" fill="none" xmlns="http://www.w3.org/2000/svg">
<path d="M271.01 262.814H2.09294C1.81875 262.816 1.5469 262.764 1.29306 262.66C1.03921 262.557 0.80838 262.404 0.61385 262.211C0.419321 262.019 0.264899 261.789 0.159549 261.537C0.0541977 261.284 0 261.013 0 260.739C0 260.466 0.0541977 260.195 0.159549 259.942C0.264899 259.69 0.419321 259.46 0.61385 259.268C0.80838 259.075 1.03921 258.922 1.29306 258.819C1.5469 258.715 1.81875 258.663 2.09294 258.665H271.01C271.284 258.663 271.556 258.715 271.81 258.819C272.063 258.922 272.294 259.075 272.489 259.268C272.683 259.46 272.838 259.69 272.943 259.942C273.048 260.195 273.103 260.466 273.103 260.739C273.103 261.013 273.048 261.284 272.943 261.537C272.838 261.789 272.683 262.019 272.489 262.211C272.294 262.404 272.063 262.557 271.81 262.66C271.556 262.764 271.284 262.816 271.01 262.814V262.814Z" fill="#E4E4E4"/>
<path d="M156.692 148.332H52.1193C46.2763 148.325 40.6744 146.006 36.5427 141.883C32.4111 137.76 30.087 132.171 30.0804 126.34V21.9911C30.0871 16.1606 32.4112 10.5709 36.5429 6.44822C40.6745 2.32552 46.2763 0.00652669 52.1193 0H156.692C162.535 0.00652669 168.137 2.32552 172.269 6.44822C176.4 10.5709 178.724 16.1606 178.731 21.9911V126.34C178.724 132.171 176.4 137.76 172.269 141.883C168.137 146.006 162.535 148.325 156.692 148.332V148.332Z" fill="#7B4BFF"/>
<path d="M220.984 196.724H116.411C110.568 196.717 104.966 194.398 100.835 190.276C96.7029 186.153 94.3788 180.563 94.3721 174.733V70.3838C94.3787 64.5533 96.7028 58.9634 100.834 54.8406C104.966 50.7178 110.568 48.3987 116.411 48.3922H220.984C226.827 48.3987 232.429 50.7178 236.56 54.8406C240.692 58.9634 243.016 64.5533 243.023 70.3838V174.733C243.016 180.563 240.692 186.153 236.56 190.276C232.429 194.398 226.827 196.717 220.984 196.724Z" fill="#3F3D56"/>
<path d="M40.6645 322.632C40.364 322.632 40.0758 322.513 39.8633 322.301C39.6508 322.088 39.5314 321.801 39.5314 321.501V301.149C39.5314 300.849 39.6508 300.562 39.8633 300.35C40.0758 300.138 40.364 300.018 40.6645 300.018C40.965 300.018 41.2532 300.138 41.4657 300.35C41.6782 300.562 41.7976 300.849 41.7976 301.149V321.501C41.7976 321.801 41.6782 322.088 41.4657 322.301C41.2532 322.513 40.965 322.632 40.6645 322.632V322.632Z" fill="#CCCCCC"/>
<path d="M133.011 322.632C132.711 322.632 132.423 322.513 132.21 322.301C131.998 322.088 131.878 321.801 131.878 321.501V301.149C131.878 300.849 131.998 300.562 132.21 300.35C132.423 300.138 132.711 300.018 133.011 300.018C133.312 300.018 133.6 300.138 133.813 300.35C134.025 300.562 134.144 300.849 134.144 301.149V321.501C134.144 321.801 134.025 322.088 133.813 322.301C133.6 322.513 133.312 322.632 133.011 322.632Z" fill="#E4E4E4"/>
<path d="M140.943 322.632C140.642 322.632 140.354 322.513 140.142 322.301C139.929 322.088 139.81 321.801 139.81 321.501V301.149C139.81 300.849 139.929 300.562 140.142 300.35C140.354 300.138 140.642 300.018 140.943 300.018C141.244 300.018 141.532 300.138 141.744 300.35C141.957 300.562 142.076 300.849 142.076 301.149V321.501C142.076 321.801 141.957 322.088 141.744 322.301C141.532 322.513 141.244 322.632 140.943 322.632Z" fill="#E4E4E4"/>
<path d="M57.2983 323C56.8362 322.999 56.3826 322.876 55.9834 322.644L42.5066 313.574C42.4812 313.559 42.456 313.543 42.4311 313.527C42.0588 313.294 41.7529 312.968 41.5427 312.583C41.3325 312.197 41.2251 311.764 41.2308 311.325C41.228 310.864 41.3483 310.411 41.5794 310.011C41.8104 309.612 42.1438 309.281 42.5454 309.053L55.9165 300.048C56.3145 299.802 56.7711 299.667 57.2391 299.656C57.707 299.645 58.1694 299.759 58.5783 299.987C58.9872 300.214 59.3278 300.546 59.5649 300.949C59.802 301.352 59.9269 301.81 59.9268 302.278V320.373C59.9252 321.068 59.6478 321.735 59.1554 322.227C58.6629 322.719 57.9953 322.997 57.2983 323V323ZM57.184 320.728C57.2332 320.743 57.2852 320.747 57.3363 320.74C57.3873 320.733 57.4361 320.715 57.4792 320.686C57.5351 320.655 57.5816 320.61 57.6135 320.555C57.6455 320.499 57.6618 320.436 57.6606 320.373V302.278C57.6607 302.214 57.6439 302.152 57.6121 302.097C57.5803 302.042 57.5346 301.996 57.4795 301.964C57.4244 301.932 57.3619 301.916 57.2983 301.916C57.2347 301.916 57.1722 301.932 57.1171 301.964L43.7454 310.97C43.5205 311.103 43.497 311.247 43.497 311.325C43.4957 311.389 43.5119 311.452 43.5438 311.507C43.5757 311.562 43.6221 311.607 43.6779 311.638L43.7454 311.68L57.184 320.728Z" fill="#E4E4E4"/>
<path d="M231.024 322.632C230.723 322.632 230.435 322.513 230.223 322.301C230.01 322.088 229.891 321.801 229.891 321.501V301.149C229.891 300.849 230.01 300.562 230.223 300.35C230.435 300.138 230.723 300.018 231.024 300.018C231.325 300.018 231.613 300.138 231.825 300.35C232.038 300.562 232.157 300.849 232.157 301.149V321.501C232.157 321.801 232.038 322.088 231.825 322.301C231.613 322.513 231.325 322.632 231.024 322.632Z" fill="#CCCCCC"/>
<path d="M214.369 322.995C213.915 322.994 213.469 322.873 213.076 322.644C212.675 322.416 212.341 322.086 212.11 321.686C211.879 321.287 211.759 320.834 211.761 320.373V302.278C211.761 301.817 211.883 301.365 212.114 300.966C212.344 300.567 212.676 300.236 213.076 300.006C213.476 299.776 213.929 299.655 214.39 299.655C214.852 299.655 215.305 299.776 215.705 300.006L229.21 309.095C229.596 309.325 229.914 309.652 230.133 310.044C230.351 310.435 230.463 310.877 230.457 311.325C230.46 311.779 230.344 312.225 230.12 312.619C229.896 313.014 229.572 313.343 229.181 313.574L215.772 322.602C215.347 322.855 214.863 322.991 214.369 322.995V322.995ZM214.027 320.373C214.027 320.436 214.044 320.498 214.076 320.553C214.108 320.608 214.153 320.654 214.209 320.686C214.264 320.718 214.326 320.734 214.39 320.734C214.453 320.735 214.516 320.718 214.571 320.686L227.994 311.647C228.052 311.616 228.1 311.569 228.135 311.513C228.17 311.457 228.189 311.392 228.191 311.326V311.325C228.192 311.261 228.176 311.199 228.144 311.143C228.112 311.088 228.066 311.043 228.01 311.012L214.504 301.923C214.455 301.906 214.403 301.902 214.352 301.909C214.301 301.916 214.252 301.935 214.209 301.964C214.153 301.995 214.107 302.04 214.075 302.096C214.043 302.151 214.026 302.214 214.028 302.278L214.027 320.373Z" fill="#E4E4E4"/>
<path d="M76.9233 274.307C84.4328 274.307 90.5204 268.233 90.5204 260.739C90.5204 253.246 84.4328 247.172 76.9233 247.172C69.4139 247.172 63.3262 253.246 63.3262 260.739C63.3262 268.233 69.4139 274.307 76.9233 274.307Z" fill="#7B4BFF"/>
</svg>
