<svg width="681" height="681" viewBox="0 0 681 681" fill="none" xmlns="http://www.w3.org/2000/svg">
<path d="M168.344 200.933C155.711 205.355 137.742 212.613 123.411 218.215C109.08 223.817 93.4551 229.415 93.4551 230.889C93.4551 232.152 120.589 239.749 145.013 248.171C169.437 256.593 201.674 266.892 217.887 272.366C234.099 278.051 267.51 287.86 292.776 296.493L340.406 312.284L408.204 289.124C474.738 266.384 504.09 260.097 555.465 242.41C559.849 240.901 575.052 236.55 575.052 235.497C575.052 234.445 563.331 228.485 561.226 227.432C556.594 224.906 486.529 192.48 484.002 192.48C481.476 192.48 476.587 202.705 478.271 204.389C479.114 205.021 493.249 211.302 509.379 218.215C524.357 224.634 542.37 231.93 542.791 233.193C543.002 234.246 524.082 240.123 503.619 245.867C485.184 251.627 442.555 265.453 405.045 278.175L342.318 296.493L275.556 278.175C235.169 265.453 193.019 252.183 174.912 245.867C156.804 239.55 125.505 231.941 125.715 230.889C126.136 229.625 158.91 216.566 174.912 211.302C205.213 200.933 202.488 202.196 202.909 200.933C203.962 197.985 197.441 192.48 194.493 192.691C193.019 192.691 181.188 196.301 168.344 200.933Z" fill="#7B4BFF"/>
<path d="M59.3185 273.332C47.1065 288.913 37 302.388 37 303.652C37 304.705 44.3693 308.284 53.4231 311.442C62.2663 314.601 90.0592 324.707 114.904 333.971C139.75 343.025 170.069 354.395 182.281 358.816C194.493 363.238 215.969 371.239 230.287 376.503C244.605 381.977 257.869 386.188 259.764 386.188C264.818 386.188 320.614 329.971 318.087 327.444C316.824 326.391 308.823 323.023 300.19 320.075C291.558 317.338 262.08 307.231 234.919 297.756C207.758 288.281 180.176 278.807 173.859 276.701C167.542 274.596 144.382 266.595 122.274 259.015C100.376 251.435 82.0582 245.118 81.8476 245.118C81.6371 245.118 71.5306 257.751 59.3185 273.332Z" fill="#3F3D56" fill-opacity="0.8"/>
<path d="M582.33 250.382C574.751 253.119 523.165 271.016 467.579 290.176C411.994 309.126 364.83 325.549 362.724 326.391C359.356 327.655 363.567 332.708 387.78 356.922C403.782 373.134 418.731 386.188 420.837 386.188C422.942 386.188 431.786 383.451 440.839 380.082C449.683 376.503 477.897 366.186 503.373 356.711C528.85 347.236 559.591 335.866 571.803 331.445C609.071 317.759 633.705 308.705 638.758 307.231C641.496 306.389 643.391 304.494 642.97 302.81C642.127 299.23 599.385 245.118 597.49 245.329C596.648 245.329 589.91 247.645 582.33 250.382Z" fill="#3F3D56" fill-opacity="0.8"/>
<path d="M89.6379 429.983V514.415L102.903 518.626C110.062 520.731 163.752 539.26 222.286 559.473L328.615 596.319L329.246 473.989C329.457 406.822 329.246 351.237 328.615 350.605C327.983 349.973 313.876 363.028 297.453 379.451C281.03 395.874 266.291 409.349 264.607 409.349C261.87 409.349 241.236 401.98 175.964 377.766C156.804 370.607 131.327 361.133 119.115 356.711C106.903 352.289 95.3229 348.078 93.4279 347.236C89.8485 345.762 89.6379 350.605 89.6379 429.983Z" fill="#3F3D56"/>
<path d="M572.856 352.71C563.592 356.29 540.852 364.712 522.323 371.45C503.795 378.187 473.054 389.557 454.104 396.505C434.944 403.664 417.889 409.349 416.205 409.349C414.31 409.349 399.571 396.084 383.359 379.872C367.146 363.659 353.25 350.394 352.408 350.394C351.355 350.394 350.723 405.77 350.723 473.567V596.53L412.415 575.475C446.103 563.684 479.16 552.525 485.477 550.419C509.901 542.418 588.647 514.836 590.753 513.572C593.279 512.099 593.7 346.183 591.384 346.183C590.332 346.394 582.12 349.342 572.856 352.71Z" fill="#3F3D56"/>
<circle cx="338.862" cy="164.65" r="80.6501" fill="#2DCC70"/>
<path d="M303.226 131.851V135.95L313.865 136.008L324.496 136.066L324.753 136.856C325.081 137.901 325.551 140.351 325.755 142.105C325.968 144.009 325.977 147.284 325.764 148.724C325.063 153.369 323.343 156.469 320.018 159.012L319.371 159.5L319.061 158.989C318.476 158.014 317.35 156.655 316.605 156.016C315.195 154.82 313.883 154.391 311.932 154.507C311.01 154.565 310.629 154.634 310.115 154.867C307.783 155.923 306.586 158.223 306.763 161.323C306.959 164.714 308.262 167.849 312.003 173.864C316.756 181.505 324.718 191.852 332.245 200.143L333.513 201.537L335.898 198.413L338.283 195.289L336.669 193.605C331.465 188.171 327.236 183.201 322.909 177.453C320.861 174.735 318.015 170.648 318.094 170.555C318.112 170.543 318.52 170.299 319.008 170.032C320.134 169.405 322.554 167.826 323.707 166.955C325.312 165.747 326.792 164.319 327.918 162.879L328.495 162.148L329.124 162.252C330.897 162.542 332.617 163.204 334.196 164.168L335.011 164.679V165.411C335.011 167.013 335.286 169.22 335.685 170.81C336.971 175.978 340.038 179.74 344.099 181.122C346.786 182.028 350.651 181.691 354.074 180.228C355.315 179.705 355.244 179.787 355.049 179.055C354.677 177.673 353.098 172.088 353.072 172.041C353.054 172.018 352.779 172.134 352.46 172.285C350.926 173.04 349.383 173.33 347.318 173.261C346.067 173.214 345.775 173.156 345.163 172.901C343.408 172.146 342.228 170.648 341.696 168.476C341.501 167.71 341.448 167.234 341.413 165.956C341.359 164.017 341.501 163.042 342.033 161.637C342.867 159.454 344.738 157.851 346.998 157.375C347.894 157.189 350.332 157.294 351.236 157.549C356.06 158.954 360.112 164.273 364.757 175.316C365.13 176.21 365.449 176.953 365.467 176.977C365.493 177.011 370.999 173.214 371.079 173.11C371.132 173.04 369.492 169.127 368.588 167.164C366.947 163.646 365.289 160.696 363.782 158.652C361.991 156.214 360.901 154.994 359.198 153.531C356.627 151.313 353.852 149.955 350.97 149.479C349.818 149.293 347.043 149.328 345.89 149.548C343.239 150.048 340.712 151.511 338.886 153.601C338.354 154.205 337.263 155.842 336.997 156.423L336.847 156.771L336.173 156.4C335.366 155.947 333.797 155.25 332.883 154.948C332.103 154.693 332.112 154.727 332.458 153.195C332.963 150.988 333.176 148.015 333.052 144.892C332.937 141.861 332.564 139.283 331.926 136.961L331.651 136.008H353.019H374.377V131.886V127.764H338.806H303.226V131.851Z" fill="black"/>
</svg>
