<svg width="263" height="230" viewBox="0 0 263 230" fill="none" xmlns="http://www.w3.org/2000/svg">
<path d="M57.1088 57.578C51.6263 59.4969 42.6717 62.6036 37.2806 64.4311C31.7982 66.1672 27.4122 68.1774 27.4122 68.8171C27.4122 69.3653 36.1841 72.8375 46.8749 76.5839C57.4743 80.2388 72.0028 85.2644 79.0386 87.6401C86.0744 90.1072 100.786 95.2242 111.75 98.9705L131.67 105.824L161.092 95.7724C189.967 85.904 202.302 81.6094 224.597 73.934C230.72 71.741 235.745 69.7308 235.745 69.2739C235.745 68.8171 235.014 68.0861 234.1 67.6292C232.09 66.5327 195.084 53.8317 193.987 53.8317C192.891 53.8317 189.784 60.3193 190.515 61.0503C190.88 61.3244 196.728 63.5174 203.581 65.8017C210.343 68.0861 216.1 70.279 216.282 70.8273C216.374 71.2842 210.069 73.8426 202.119 76.4925C194.261 79.2337 175.164 85.7213 159.722 91.021L131.579 100.707L103.527 91.021C87.9932 85.7213 68.896 79.2337 61.0379 76.4925C53.0883 73.8426 46.7835 71.2842 46.8749 70.8273C47.0576 70.279 52.9056 67.9947 59.85 65.7103C66.7944 63.426 72.6424 61.1416 72.8251 60.5934C73.282 59.3142 69.627 53.8317 68.3478 53.9231C67.7082 53.9231 62.6826 55.5678 57.1088 57.578Z" fill="#3C3C3C"/>
<path d="M9.68565 88.9194C4.38596 95.681 0 101.529 0 102.077C0 102.534 3.19809 104.087 7.12718 105.458C10.9649 106.829 23.0263 111.215 33.8084 115.235C44.5905 119.164 57.7484 124.098 63.0481 126.017C68.3478 127.936 77.668 131.408 83.8814 133.693C90.0948 136.068 95.8514 137.896 96.6738 137.896C98.8667 137.896 123.081 113.499 121.984 112.402C121.436 111.946 117.964 110.484 114.218 109.204C110.471 108.017 97.6789 103.631 85.8916 99.5187C74.1044 95.4069 62.1344 91.2951 59.3931 90.3813C56.6519 89.4676 46.6008 85.9954 37.0065 82.7059C27.5036 79.4165 19.5541 76.6752 19.4627 76.6752C19.3713 76.6752 14.9853 82.1577 9.68565 88.9194Z" fill="#7B4BFF" fill-opacity="0.8"/>
<path d="M236.659 78.9596C233.369 80.1474 210.983 87.9142 186.86 96.2293C162.737 104.453 142.269 111.58 141.356 111.946C139.894 112.494 141.721 114.687 152.229 125.195C159.174 132.231 165.661 137.896 166.575 137.896C167.489 137.896 171.326 136.708 175.255 135.246C179.093 133.693 191.337 129.215 202.394 125.103C213.45 120.992 226.79 116.057 232.09 114.139C248.263 108.199 258.954 104.27 261.147 103.631C262.335 103.265 263.157 102.443 262.975 101.712C262.609 100.158 244.06 76.6752 243.238 76.7666C242.872 76.7666 239.948 77.7717 236.659 78.9596Z" fill="#7B4BFF" fill-opacity="0.8"/>
<path d="M22.8435 156.902V193.543L28.6001 195.37C31.7068 196.284 55.0072 204.325 80.4092 213.097L126.553 229.087L126.827 175.999C126.919 146.851 126.827 122.728 126.553 122.454C126.279 122.18 120.157 127.845 113.03 134.972C105.903 142.099 99.5064 147.947 98.7754 147.947C97.5875 147.947 88.6329 144.749 60.3069 134.241C51.9918 131.134 40.9356 127.022 35.6359 125.103C30.3362 123.185 25.3106 121.357 24.4883 120.992C22.9349 120.352 22.8435 122.454 22.8435 156.902Z" fill="#7B4BFF"/>
<path d="M232.547 123.367C228.527 124.921 218.658 128.576 210.617 131.5C202.576 134.424 189.236 139.358 181.012 142.373C172.697 145.48 165.296 147.947 164.565 147.947C163.742 147.947 157.346 142.19 150.31 135.155C143.275 128.119 137.244 122.362 136.878 122.362C136.421 122.362 136.147 146.394 136.147 175.816V229.179L162.92 220.041C177.54 214.924 191.886 210.081 194.627 209.168C205.226 205.695 239.4 193.725 240.314 193.177C241.41 192.538 241.593 120.535 240.588 120.535C240.131 120.626 236.567 121.905 232.547 123.367Z" fill="#7B4BFF"/>
<circle cx="131.579" cy="38.3771" r="38.3771" fill="#E4E4E4"/>
<path d="M114.621 22.7698V24.7204L119.684 24.748L124.743 24.7756L124.865 25.1514C125.021 25.6487 125.245 26.8146 125.342 27.649C125.443 28.5552 125.447 30.1135 125.346 30.7986C125.013 33.0089 124.194 34.4843 122.612 35.6944L122.304 35.9265L122.156 35.6833C121.878 35.2192 121.342 34.5727 120.988 34.2688C120.317 33.6996 119.693 33.4952 118.764 33.5504C118.326 33.5781 118.144 33.6112 117.899 33.7217C116.79 34.2246 116.22 35.3186 116.305 36.794C116.398 38.4075 117.018 39.8994 118.798 42.7617C121.059 46.3976 124.848 51.321 128.43 55.2663L129.033 55.9294L130.168 54.443L131.303 52.9566L130.535 52.1554C128.059 49.5694 126.046 47.2044 123.987 44.4692C123.013 43.1762 121.659 41.2311 121.697 41.1869C121.705 41.1814 121.899 41.0653 122.131 40.9383C122.667 40.6399 123.819 39.8884 124.367 39.474C125.131 38.8993 125.835 38.2196 126.371 37.5344L126.645 37.1863L126.945 37.2361C127.789 37.3742 128.607 37.6892 129.358 38.1478L129.746 38.3909V38.739C129.746 39.5016 129.877 40.5515 130.067 41.3085C130.679 43.7674 132.138 45.5577 134.071 46.2153C135.349 46.6463 137.189 46.486 138.817 45.7898C139.408 45.5411 139.374 45.5798 139.281 45.2317C139.104 44.5742 138.353 41.9163 138.34 41.8942C138.332 41.8831 138.201 41.9384 138.049 42.0102C137.319 42.3694 136.585 42.5076 135.602 42.4744C135.007 42.4523 134.868 42.4247 134.577 42.3031C133.742 41.9439 133.181 41.2311 132.927 40.1978C132.835 39.8331 132.809 39.6066 132.792 38.9987C132.767 38.076 132.835 37.6118 133.088 36.9432C133.484 35.9044 134.375 35.1418 135.45 34.9153C135.876 34.8269 137.037 34.8766 137.467 34.9982C139.762 35.6668 141.69 38.1975 143.901 43.4524C144.078 43.8779 144.23 44.2316 144.238 44.2426C144.251 44.2592 146.871 42.4523 146.909 42.4026C146.934 42.3694 146.154 40.5073 145.724 39.5734C144.943 37.8991 144.154 36.4956 143.437 35.5231C142.585 34.3627 142.066 33.7825 141.256 33.0863C140.032 32.0309 138.712 31.3844 137.34 31.1578C136.792 31.0694 135.471 31.086 134.923 31.191C133.662 31.4286 132.459 32.1248 131.59 33.1194C131.337 33.4068 130.818 34.1859 130.691 34.4622L130.62 34.6279L130.299 34.4511C129.915 34.2356 129.168 33.9041 128.734 33.7604C128.363 33.6388 128.367 33.6554 128.531 32.926C128.772 31.8761 128.873 30.4616 128.814 28.9752C128.759 27.533 128.582 26.3063 128.278 25.2011L128.147 24.748H138.315H148.479V22.7864V20.8248H131.552H114.621V22.7698Z" fill="black"/>
</svg>
