<svg width="263" height="224" viewBox="0 0 263 224" fill="none" xmlns="http://www.w3.org/2000/svg">
<path d="M57 51.5C51.5176 53.4189 43.7194 56.5689 37.5 59C31.2806 61.4311 24.5 63.8604 24.5 64.5C24.5 65.0482 36.2755 68.345 46.8749 72C57.4743 75.655 71.4642 80.1243 78.5 82.5C85.5358 84.9671 100.035 89.2242 111 92.9705L131.67 99.8236L161.092 89.7724C189.967 79.904 202.705 77.1754 225 69.5C226.903 68.845 233.5 66.9569 233.5 66.5C233.5 66.0431 228.414 63.4569 227.5 63C225.49 61.9035 195.084 47.8317 193.987 47.8317C192.891 47.8317 190.769 52.269 191.5 53C191.865 53.2741 198 56 205 59C211.5 61.7857 219.317 64.9518 219.5 65.5C219.591 65.9569 211.381 68.5075 202.5 71C194.5 73.5 176 79.5 159.722 85.021L132.5 92.9705L103.527 85.021C86 79.5 67.7082 73.7412 59.85 71C51.9918 68.2588 38.4086 64.9569 38.5 64.5C38.6827 63.9518 52.9056 58.2844 59.85 56C73 51.5 71.8173 52.0482 72 51.5C72.4569 50.2208 69.627 47.8317 68.3478 47.9231C67.7082 47.9231 62.5738 49.4898 57 51.5Z" fill="#7B4BFF"/>
<path d="M9.68565 82.9194C4.38596 89.681 0 95.529 0 96.0772C0 96.5341 3.19809 98.0875 7.12718 99.4581C10.9649 100.829 23.0263 105.215 33.8084 109.235C44.5905 113.164 57.7484 118.098 63.0481 120.017C68.3478 121.936 77.668 125.408 83.8814 127.693C90.0948 130.068 95.8514 131.896 96.6738 131.896C98.8667 131.896 123.081 107.499 121.984 106.402C121.436 105.946 117.964 104.484 114.218 103.204C110.471 102.017 97.6789 97.6306 85.8916 93.5187C74.1044 89.4069 62.1344 85.2951 59.3931 84.3813C56.6519 83.4676 46.6008 79.9954 37.0065 76.7059C27.5036 73.4165 19.5541 70.6752 19.4627 70.6752C19.3713 70.6752 14.9853 76.1577 9.68565 82.9194Z" fill="#3F3D56" fill-opacity="0.8"/>
<path d="M236.659 72.9596C233.369 74.1474 210.983 81.9142 186.86 90.2293C162.737 98.4529 142.269 105.58 141.356 105.946C139.894 106.494 141.721 108.687 152.229 119.195C159.174 126.231 165.661 131.896 166.575 131.896C167.489 131.896 171.326 130.708 175.255 129.246C179.093 127.693 191.337 123.215 202.394 119.103C213.45 114.992 226.79 110.057 232.09 108.139C248.263 102.199 258.954 98.2702 261.147 97.6306C262.335 97.2651 263.157 96.4427 262.975 95.7117C262.609 94.1584 244.06 70.6752 243.238 70.7666C242.872 70.7666 239.948 71.7717 236.659 72.9596Z" fill="#3F3D56" fill-opacity="0.8"/>
<path d="M22.8435 150.902V187.543L28.6001 189.37C31.7068 190.284 55.0072 198.325 80.4092 207.097L126.553 223.087L126.827 169.999C126.919 140.851 126.827 116.728 126.553 116.454C126.279 116.18 120.157 121.845 113.03 128.972C105.903 136.099 99.5064 141.947 98.7754 141.947C97.5875 141.947 88.6329 138.749 60.3069 128.241C51.9918 125.134 40.9356 121.022 35.6359 119.103C30.3362 117.185 25.3106 115.357 24.4883 114.992C22.9349 114.352 22.8435 116.454 22.8435 150.902Z" fill="#3F3D56"/>
<path d="M232.547 117.367C228.527 118.921 218.658 122.576 210.617 125.5C202.576 128.424 189.236 133.358 181.012 136.373C172.697 139.48 165.296 141.947 164.565 141.947C163.742 141.947 157.346 136.19 150.31 129.155C143.275 122.119 137.244 116.362 136.878 116.362C136.421 116.362 136.147 140.394 136.147 169.816V223.179L162.92 214.041C177.54 208.924 191.886 204.081 194.627 203.168C205.226 199.695 239.4 187.725 240.314 187.177C241.41 186.538 241.593 114.535 240.588 114.535C240.131 114.626 236.567 115.905 232.547 117.367Z" fill="#3F3D56"/>
<circle cx="131" cy="35.7542" r="35" fill="#2DCC70"/>
<path d="M115.535 21.5203V23.2993L120.152 23.3245L124.766 23.3496L124.877 23.6923C125.019 24.1459 125.223 25.2092 125.312 25.9702C125.404 26.7966 125.408 28.2177 125.316 28.8426C125.012 30.8584 124.265 32.2039 122.822 33.3076L122.542 33.5192L122.407 33.2975C122.153 32.8742 121.664 32.2846 121.341 32.0074C120.729 31.4883 120.16 31.3019 119.313 31.3523C118.913 31.3775 118.748 31.4077 118.525 31.5085C117.513 31.9671 116.993 32.9649 117.07 34.3104C117.155 35.7819 117.72 37.1426 119.344 39.753C121.406 43.0689 124.862 47.5591 128.128 51.1572L128.679 51.762L129.714 50.4064L130.749 49.0507L130.048 48.32C127.79 45.9616 125.954 43.8047 124.077 41.3102C123.188 40.131 121.953 38.3571 121.987 38.3168C121.995 38.3117 122.172 38.2059 122.384 38.09C122.872 37.8179 123.923 37.1325 124.423 36.7545C125.12 36.2304 125.762 35.6106 126.251 34.9857L126.501 34.6682L126.774 34.7136C127.544 34.8396 128.29 35.1268 128.975 35.5451L129.329 35.7668V36.0843C129.329 36.7797 129.448 37.7372 129.621 38.4276C130.179 40.6702 131.511 42.303 133.273 42.9026C134.439 43.2957 136.116 43.1496 137.601 42.5146C138.14 42.2878 138.109 42.3231 138.025 42.0056C137.863 41.4059 137.178 38.982 137.167 38.9618C137.159 38.9517 137.04 39.0021 136.901 39.0676C136.236 39.3952 135.566 39.5212 134.67 39.4909C134.127 39.4708 134 39.4456 133.735 39.3347C132.973 39.0072 132.461 38.3571 132.23 37.4147C132.145 37.0821 132.122 36.8755 132.107 36.3211C132.084 35.4796 132.145 35.0562 132.376 34.4465C132.738 33.4991 133.55 32.8036 134.531 32.597C134.92 32.5164 135.978 32.5617 136.37 32.6726C138.463 33.2824 140.222 35.5904 142.238 40.3829C142.4 40.771 142.538 41.0935 142.546 41.1036C142.557 41.1187 144.947 39.4708 144.981 39.4254C145.004 39.3952 144.293 37.6969 143.9 36.8452C143.188 35.3183 142.469 34.0383 141.815 33.1513C141.037 32.0931 140.564 31.5639 139.825 30.929C138.71 29.9664 137.505 29.3768 136.255 29.1702C135.755 29.0896 134.55 29.1047 134.05 29.2004C132.9 29.4171 131.803 30.0521 131.01 30.9592C130.779 31.2212 130.306 31.9318 130.191 32.1838L130.125 32.335L129.833 32.1737C129.483 31.9772 128.802 31.6748 128.405 31.5438C128.067 31.4329 128.071 31.448 128.221 30.7828C128.44 29.8253 128.532 28.5352 128.479 27.1796C128.429 25.8643 128.267 24.7456 127.99 23.7377L127.871 23.3245H137.144H146.413V21.5355V19.7465H130.976H115.535V21.5203Z" fill="black"/>
</svg>
