<svg width="286" height="359" viewBox="0 0 286 359" fill="none" xmlns="http://www.w3.org/2000/svg">
<path d="M125.71 45H116.47C113.727 34.374 108.058 24.7306 100.107 17.1656C92.1567 9.60055 82.2437 4.41727 71.4945 2.20469C60.7454 -0.00788622 49.5911 0.838962 39.2992 4.64901C29.0073 8.45905 19.9905 15.0795 13.2732 23.7581C6.55598 32.4367 2.40771 42.8255 1.29976 53.7439C0.191824 64.6624 2.16864 75.6727 7.0056 85.5237C11.8426 95.3748 19.3457 103.672 28.6624 109.471C37.9792 115.271 48.7359 118.342 59.7104 118.333H125.71C135.435 118.333 144.761 114.47 151.638 107.594C158.514 100.718 162.377 91.3913 162.377 81.6667C162.377 71.9421 158.514 62.6157 151.638 55.7394C144.761 48.8631 135.435 45 125.71 45Z" fill="#7B4BFF" stroke="#7B4BFF" stroke-width="2" stroke-linecap="round" stroke-linejoin="round"/>
<path d="M283.01 298.814H14.0929C13.8187 298.816 13.5469 298.764 13.2931 298.66C13.0392 298.557 12.8084 298.404 12.6139 298.211C12.4193 298.019 12.2649 297.789 12.1595 297.537C12.0542 297.284 12 297.013 12 296.739C12 296.466 12.0542 296.195 12.1595 295.942C12.2649 295.69 12.4193 295.46 12.6139 295.268C12.8084 295.075 13.0392 294.922 13.2931 294.819C13.5469 294.715 13.8187 294.663 14.0929 294.665H283.01C283.284 294.663 283.556 294.715 283.81 294.819C284.063 294.922 284.294 295.075 284.489 295.268C284.683 295.46 284.838 295.69 284.943 295.942C285.048 296.195 285.103 296.466 285.103 296.739C285.103 297.013 285.048 297.284 284.943 297.537C284.838 297.789 284.683 298.019 284.489 298.211C284.294 298.404 284.063 298.557 283.81 298.66C283.556 298.764 283.284 298.816 283.01 298.814V298.814Z" fill="#E4E4E4"/>
<path d="M232.984 232.724H128.411C122.568 232.717 116.966 230.398 112.835 226.276C108.703 222.153 106.379 216.563 106.372 210.733V106.384C106.379 100.553 108.703 94.9634 112.834 90.8406C116.966 86.7178 122.568 84.3987 128.411 84.3922H232.984C238.827 84.3987 244.429 86.7178 248.56 90.8406C252.692 94.9634 255.016 100.553 255.023 106.384V210.733C255.016 216.563 252.692 222.153 248.56 226.276C244.429 230.398 238.827 232.717 232.984 232.724Z" fill="#3F3D56"/>
<path d="M52.6645 358.632C52.364 358.632 52.0758 358.513 51.8633 358.301C51.6508 358.088 51.5314 357.801 51.5314 357.501V337.149C51.5314 336.849 51.6508 336.562 51.8633 336.35C52.0758 336.138 52.364 336.018 52.6645 336.018C52.965 336.018 53.2532 336.138 53.4657 336.35C53.6782 336.562 53.7976 336.849 53.7976 337.149V357.501C53.7976 357.801 53.6782 358.088 53.4657 358.301C53.2532 358.513 52.965 358.632 52.6645 358.632V358.632Z" fill="#CCCCCC"/>
<path d="M145.011 358.632C144.711 358.632 144.423 358.513 144.21 358.301C143.998 358.088 143.878 357.801 143.878 357.501V337.149C143.878 336.849 143.998 336.562 144.21 336.35C144.423 336.138 144.711 336.018 145.011 336.018C145.312 336.018 145.6 336.138 145.813 336.35C146.025 336.562 146.144 336.849 146.144 337.149V357.501C146.144 357.801 146.025 358.088 145.813 358.301C145.6 358.513 145.312 358.632 145.011 358.632Z" fill="#E4E4E4"/>
<path d="M152.943 358.632C152.643 358.632 152.354 358.513 152.142 358.301C151.929 358.088 151.81 357.801 151.81 357.501V337.149C151.81 336.849 151.929 336.562 152.142 336.35C152.354 336.138 152.643 336.018 152.943 336.018C153.244 336.018 153.532 336.138 153.744 336.35C153.957 336.562 154.076 336.849 154.076 337.149V357.501C154.076 357.801 153.957 358.088 153.744 358.301C153.532 358.513 153.244 358.632 152.943 358.632Z" fill="#E4E4E4"/>
<path d="M69.2982 359C68.8362 358.999 68.3826 358.876 67.9834 358.644L54.5066 349.574C54.4812 349.559 54.456 349.543 54.4311 349.527C54.0588 349.294 53.7529 348.968 53.5427 348.583C53.3325 348.197 53.2251 347.764 53.2308 347.325C53.228 346.864 53.3483 346.411 53.5793 346.011C53.8104 345.612 54.1438 345.281 54.5454 345.053L67.9164 336.048C68.3145 335.802 68.7711 335.667 69.239 335.656C69.707 335.645 70.1694 335.759 70.5783 335.987C70.9872 336.214 71.3278 336.546 71.5649 336.949C71.802 337.352 71.9269 337.81 71.9268 338.278V356.373C71.9252 357.068 71.6478 357.735 71.1553 358.227C70.6629 358.719 69.9953 358.997 69.2982 359V359ZM69.184 356.728C69.2332 356.743 69.2852 356.747 69.3363 356.74C69.3873 356.733 69.4361 356.715 69.4792 356.686C69.5351 356.655 69.5816 356.61 69.6135 356.555C69.6455 356.499 69.6618 356.436 69.6606 356.373V338.278C69.6606 338.214 69.6439 338.152 69.6121 338.097C69.5803 338.042 69.5346 337.996 69.4795 337.964C69.4244 337.932 69.3619 337.916 69.2983 337.916C69.2347 337.916 69.1722 337.932 69.117 337.964L55.7454 346.97C55.5205 347.103 55.497 347.247 55.497 347.325C55.4957 347.389 55.5119 347.452 55.5438 347.507C55.5757 347.562 55.622 347.607 55.6779 347.638L55.7454 347.68L69.184 356.728Z" fill="#E4E4E4"/>
<path d="M243.024 358.632C242.723 358.632 242.435 358.513 242.223 358.301C242.01 358.088 241.891 357.801 241.891 357.501V337.149C241.891 336.849 242.01 336.562 242.223 336.35C242.435 336.138 242.723 336.018 243.024 336.018C243.325 336.018 243.613 336.138 243.825 336.35C244.038 336.562 244.157 336.849 244.157 337.149V357.501C244.157 357.801 244.038 358.088 243.825 358.301C243.613 358.513 243.325 358.632 243.024 358.632Z" fill="#CCCCCC"/>
<path d="M226.369 358.995C225.915 358.994 225.469 358.873 225.076 358.644C224.675 358.416 224.341 358.086 224.11 357.686C223.879 357.287 223.759 356.834 223.761 356.373V338.278C223.761 337.817 223.883 337.365 224.114 336.966C224.344 336.567 224.676 336.236 225.076 336.006C225.476 335.776 225.929 335.655 226.39 335.655C226.852 335.655 227.305 335.776 227.705 336.006L241.21 345.095C241.596 345.325 241.914 345.652 242.133 346.044C242.351 346.435 242.463 346.877 242.457 347.325C242.46 347.779 242.344 348.225 242.12 348.619C241.896 349.014 241.572 349.343 241.181 349.574L227.772 358.602C227.347 358.855 226.863 358.991 226.369 358.995V358.995ZM226.027 356.373C226.027 356.436 226.044 356.498 226.076 356.553C226.108 356.608 226.153 356.654 226.209 356.686C226.264 356.718 226.326 356.734 226.39 356.734C226.453 356.735 226.516 356.718 226.571 356.686L239.994 347.647C240.052 347.616 240.1 347.569 240.135 347.513C240.17 347.457 240.189 347.392 240.191 347.326V347.325C240.192 347.261 240.176 347.199 240.144 347.143C240.112 347.088 240.066 347.043 240.01 347.012L226.504 337.923C226.455 337.906 226.403 337.902 226.352 337.909C226.301 337.916 226.252 337.935 226.209 337.964C226.153 337.995 226.107 338.04 226.075 338.096C226.043 338.151 226.026 338.214 226.028 338.278L226.027 356.373Z" fill="#E4E4E4"/>
<path d="M196.597 310.307C204.107 310.307 210.194 304.233 210.194 296.739C210.194 289.246 204.107 283.172 196.597 283.172C189.088 283.172 183 289.246 183 296.739C183 304.233 189.088 310.307 196.597 310.307Z" fill="#7B4BFF"/>
</svg>
