<svg width="681" height="681" viewBox="0 0 681 681" fill="none" xmlns="http://www.w3.org/2000/svg">
<path d="M317.376 104.127H299.492C294.182 85.5008 283.21 68.597 267.821 55.3364C252.433 42.0758 233.247 32.9901 212.442 29.1117C191.637 25.2333 170.048 26.7177 150.128 33.3963C130.208 40.0749 112.756 51.6798 99.7548 66.8924C86.7536 82.1051 78.7246 100.315 76.5802 119.454C74.4358 138.593 78.2619 157.893 87.6238 175.161C96.9857 192.428 111.508 206.972 129.541 217.138C147.573 227.305 168.393 232.686 189.634 232.672H317.376C336.198 232.672 354.249 225.901 367.558 213.847C380.868 201.794 388.345 185.446 388.345 168.4C388.345 151.353 380.868 135.005 367.558 122.952C354.249 110.899 336.198 104.127 317.376 104.127Z" fill="#7B4BFF" stroke="#7B4BFF" stroke-width="2" stroke-linecap="round" stroke-linejoin="round"/>
<path d="M600.849 547.035H80.3619C79.8312 547.038 79.3051 546.946 78.8137 546.765C78.3224 546.584 77.8757 546.316 77.4991 545.978C77.1226 545.64 76.8237 545.238 76.6198 544.795C76.4159 544.352 76.311 543.878 76.311 543.398C76.311 542.918 76.4159 542.443 76.6198 542.001C76.8237 541.558 77.1226 541.156 77.4991 540.818C77.8757 540.48 78.3224 540.212 78.8137 540.031C79.3051 539.85 79.8312 539.758 80.3619 539.761H600.849C601.38 539.758 601.906 539.85 602.397 540.031C602.889 540.212 603.335 540.48 603.712 540.818C604.088 541.156 604.387 541.558 604.591 542.001C604.795 542.443 604.9 542.918 604.9 543.398C604.9 543.878 604.795 544.352 604.591 544.795C604.387 545.238 604.088 545.64 603.712 545.978C603.335 546.316 602.889 546.584 602.397 546.765C601.906 546.946 601.38 547.038 600.849 547.035V547.035Z" fill="#E4E4E4"/>
<path d="M503.959 407.98H301.441C290.125 407.967 279.277 403.476 271.275 395.492C263.274 387.508 258.773 376.683 258.76 365.392V163.309C258.773 152.018 263.274 141.192 271.275 133.208C279.277 125.224 290.125 120.733 301.441 120.72H503.959C515.275 120.733 526.124 125.224 534.125 133.208C542.126 141.192 546.627 152.018 546.64 163.309V365.392C546.627 376.683 542.126 387.508 534.125 395.492C526.123 403.476 515.275 407.967 503.959 407.98Z" fill="#3F3D56"/>
<path d="M155.017 651.888C154.435 651.888 153.877 651.679 153.466 651.307C153.055 650.936 152.823 650.432 152.823 649.906V614.231C152.823 613.706 153.055 613.202 153.466 612.83C153.877 612.458 154.435 612.25 155.017 612.25C155.598 612.25 156.156 612.458 156.567 612.83C156.979 613.202 157.21 613.706 157.21 614.231V649.906C157.21 650.432 156.979 650.936 156.567 651.307C156.156 651.679 155.598 651.888 155.017 651.888V651.888Z" fill="#CCCCCC"/>
<path d="M333.754 651.888C333.172 651.888 332.614 651.679 332.203 651.307C331.792 650.936 331.561 650.432 331.561 649.906V614.231C331.561 613.706 331.792 613.202 332.203 612.83C332.614 612.458 333.172 612.25 333.754 612.25C334.335 612.25 334.893 612.458 335.304 612.83C335.716 613.202 335.947 613.706 335.947 614.231V649.906C335.947 650.432 335.716 650.936 335.304 651.307C334.893 651.679 334.335 651.888 333.754 651.888Z" fill="#E4E4E4"/>
<path d="M349.106 651.888C348.524 651.888 347.966 651.679 347.555 651.307C347.144 650.936 346.913 650.432 346.913 649.906V614.231C346.913 613.706 347.144 613.202 347.555 612.83C347.966 612.458 348.524 612.25 349.106 612.25C349.687 612.25 350.245 612.458 350.656 612.83C351.068 613.202 351.299 613.706 351.299 614.231V649.906C351.299 650.432 351.068 650.936 350.656 651.307C350.245 651.679 349.687 651.888 349.106 651.888Z" fill="#E4E4E4"/>
<path d="M187.211 652.534C186.317 652.532 185.439 652.317 184.667 651.909L158.582 636.011C158.533 635.984 158.484 635.957 158.436 635.929C157.716 635.519 157.123 634.949 156.717 634.273C156.31 633.597 156.102 632.838 156.113 632.069C156.108 631.261 156.34 630.466 156.788 629.766C157.235 629.066 157.88 628.486 158.657 628.087L184.537 612.301C185.307 611.87 186.191 611.633 187.097 611.614C188.003 611.595 188.898 611.795 189.689 612.194C190.48 612.593 191.14 613.175 191.599 613.881C192.057 614.587 192.299 615.391 192.299 616.21V647.928C192.296 649.147 191.759 650.316 190.806 651.179C189.853 652.042 188.561 652.529 187.211 652.534V652.534ZM186.99 648.55C187.085 648.578 187.186 648.585 187.285 648.572C187.384 648.56 187.478 648.528 187.562 648.478C187.67 648.424 187.76 648.344 187.822 648.247C187.884 648.15 187.915 648.04 187.913 647.928V616.21C187.913 616.098 187.88 615.989 187.819 615.893C187.757 615.796 187.669 615.716 187.562 615.66C187.456 615.605 187.335 615.575 187.212 615.575C187.088 615.575 186.967 615.604 186.861 615.66L160.98 631.447C160.545 631.679 160.499 631.932 160.499 632.069C160.497 632.181 160.528 632.291 160.59 632.387C160.651 632.484 160.741 632.564 160.849 632.618L160.98 632.691L186.99 648.55Z" fill="#E4E4E4"/>
<path d="M523.457 651.888C522.875 651.888 522.317 651.679 521.906 651.307C521.495 650.936 521.263 650.432 521.263 649.906V614.231C521.263 613.706 521.495 613.202 521.906 612.83C522.317 612.458 522.875 612.25 523.457 612.25C524.038 612.25 524.596 612.458 525.007 612.83C525.419 613.202 525.65 613.706 525.65 614.231V649.906C525.65 650.432 525.419 650.936 525.007 651.307C524.596 651.679 524.038 651.888 523.457 651.888Z" fill="#CCCCCC"/>
<path d="M491.222 652.525C490.342 652.523 489.478 652.311 488.719 651.91C487.941 651.511 487.296 650.931 486.849 650.231C486.401 649.531 486.168 648.736 486.174 647.928V616.21C486.174 615.402 486.409 614.609 486.855 613.91C487.302 613.212 487.944 612.631 488.718 612.228C489.492 611.824 490.369 611.612 491.262 611.612C492.155 611.612 493.033 611.825 493.806 612.228L519.946 628.16C520.692 628.563 521.308 629.137 521.731 629.823C522.155 630.509 522.372 631.283 522.36 632.069C522.365 632.864 522.14 633.646 521.707 634.338C521.273 635.029 520.647 635.606 519.89 636.011L493.936 651.837C493.114 652.279 492.178 652.517 491.222 652.525V652.525ZM490.56 647.928C490.56 648.039 490.592 648.149 490.654 648.245C490.715 648.342 490.804 648.422 490.91 648.477C491.017 648.533 491.138 648.562 491.261 648.562C491.384 648.563 491.505 648.533 491.612 648.478L517.591 632.634C517.704 632.578 517.798 632.497 517.865 632.398C517.932 632.299 517.969 632.186 517.974 632.071V632.069C517.976 631.957 517.945 631.847 517.883 631.75C517.821 631.654 517.732 631.574 517.623 631.52L491.483 615.587C491.388 615.559 491.287 615.551 491.188 615.563C491.088 615.576 490.994 615.609 490.911 615.66C490.803 615.714 490.713 615.794 490.651 615.891C490.589 615.987 490.558 616.098 490.56 616.209L490.56 647.928Z" fill="#E4E4E4"/>
<path d="M433.598 567.181C448.132 567.181 459.915 556.533 459.915 543.398C459.915 530.263 448.132 519.615 433.598 519.615C419.063 519.615 407.281 530.263 407.281 543.398C407.281 556.533 419.063 567.181 433.598 567.181Z" fill="#7B4BFF"/>
<path d="M386.324 337.446V408.007H428.064V337.446H461.388L434.292 294.721L407.192 252L380.096 294.721L353 337.446H386.324Z" fill="black"/>
</svg>
