<svg width="512" height="512" viewBox="0 0 512 512" fill="none" xmlns="http://www.w3.org/2000/svg">
<path d="M86 266.558V258.875L139.779 221.902L180.593 171.004L203.642 159L235.333 163.802H281.429L319.843 181.088L374.582 195.013L399.071 208.457L429.321 243.99L424.039 260.796V268.479L408.674 297.289L335.208 344.345H268.464L180.593 338.583L132.096 312.174L86 266.558Z" fill="black"/>
<path d="M249.889 31.1817C238.722 33.0429 242.783 29.4052 151.839 120.264C69.2696 202.747 67.8314 204.185 64.8704 210.53C61.0635 218.652 60.2175 226.096 62.2479 234.133C64.109 241.324 66.9008 245.977 73.5842 252.914L79.0831 258.667H98.964H118.76L131.535 246.4C138.556 239.632 144.563 234.387 144.901 234.726C145.24 235.064 149.724 248.938 154.969 265.435C160.214 281.931 164.698 295.89 165.036 296.482C165.29 296.99 172.565 268.734 181.195 233.626C190.754 194.626 197.099 170.346 197.438 171.277C197.776 172.123 200.483 190.65 203.613 212.561C206.659 234.387 209.366 253.422 209.62 254.775C210.127 257.144 210.381 256.89 222.564 244.793L235 232.441L245.49 258.582C251.327 272.964 256.15 284.639 256.319 284.554C256.403 284.385 263.002 262.474 270.87 235.741C278.822 209.008 285.59 186.335 285.929 185.235C286.436 183.713 291.85 197.925 309.363 246.315C321.883 280.916 332.374 309.088 332.627 308.918C332.797 308.665 338.719 295.044 345.74 278.632L358.43 248.769L365.96 261.289C370.105 268.226 373.658 273.895 373.996 273.895C374.25 273.895 377.973 266.027 382.118 256.467C386.348 246.908 389.986 238.871 390.324 238.702C390.578 238.532 393.454 243.101 396.669 248.938L402.422 259.513H417.311H432.201L438.63 252.83C442.86 248.43 445.906 244.285 447.767 240.394C450.39 234.979 450.559 233.88 450.643 226.096C450.643 218.229 450.474 217.214 447.767 211.292C444.891 205.031 443.706 203.847 363.168 123.056C318.245 78.0492 279.499 39.6416 277.13 37.7804C269.77 32.1123 259.364 29.5743 249.889 31.1817Z" fill="white"/>
<path d="M192.023 218.736C173.327 295.298 166.39 322.877 165.882 322.369C165.544 321.946 160.129 305.28 153.784 285.315C147.439 265.265 142.025 248.43 141.771 247.753C141.517 246.907 138.303 249.53 131.873 255.959L122.398 265.434L104.463 265.604L86.4432 265.857L160.721 340.473C231.446 411.536 235.169 415.174 240.837 417.881C246.421 420.503 247.267 420.673 256.065 420.673C272.223 420.673 265.371 426.425 350.478 341.15L423.91 267.549L411.22 267.126L398.53 266.703L394.892 260.105L391.255 253.506L383.387 271.272C379.072 281.085 375.265 289.122 375.012 289.122C374.758 289.122 371.289 283.792 367.398 277.194C363.421 270.68 360.037 265.181 359.784 265.011C359.276 264.758 354.031 276.855 336.942 317.293L332.035 329.053L328.651 319.831C326.79 314.84 316.723 287.176 306.317 258.497C295.911 229.819 287.113 206.808 286.859 207.315C286.605 207.908 279.922 230.157 272.054 256.721C264.186 283.369 257.588 305.196 257.249 305.196C256.995 305.196 251.327 291.745 244.644 275.248L232.546 245.215L218.672 258.413C211.058 265.604 204.882 271.272 204.882 270.849C204.882 269.411 195.576 206.808 195.323 206.554C195.238 206.385 193.715 211.884 192.023 218.736Z" fill="white"/>
<path d="M248.605 26.5183C238.302 28.7694 241.027 26.2586 150.514 118.207C69.3664 200.632 65.4495 204.701 62.8099 210.502C60.1703 216.129 60 217.168 60 225.653C60 234.138 60.1703 235.177 62.7248 240.718C64.5981 244.701 67.4931 248.684 71.6654 253.013C77.4556 259.16 77.8813 259.42 81.6279 259.42H85.5448L158.347 185.307C198.367 144.614 232.853 109.982 234.982 108.423C246.988 99.4191 264.699 99.4191 276.705 108.423C278.833 109.982 313.489 144.787 353.765 185.74C438.914 272.407 428.951 264.614 439.595 253.446C444.193 248.684 447.003 244.874 448.876 240.718C451.516 235.177 451.686 234.138 451.686 225.653C451.686 209.03 459.094 217.948 363.642 120.631C317.917 74.051 278.663 34.5703 276.449 32.8387C274.235 31.1937 270.489 29.0292 268.19 28.1634C263.081 26.172 253.885 25.3928 248.605 26.5183Z" fill="#7B4BFF"/>
<path d="M79.7869 272.326C75.3945 276.798 72.7102 280.376 70.9207 284.279C68.3991 289.483 68.2364 290.459 68.2364 298.428C68.2364 306.396 68.3991 307.372 70.9207 312.658C73.4423 318.106 77.184 321.927 154.702 399.338C243.202 487.725 238.728 483.659 250.197 485.611C254.102 486.261 256.948 486.18 260.69 485.53C272.078 483.578 267.767 487.4 355.941 399.338C433.459 321.927 437.201 318.106 439.723 312.658C442.244 307.372 442.407 306.396 442.407 298.428C442.407 290.459 442.244 289.483 439.804 284.279C438.014 280.539 435.249 276.798 431.263 272.733C425.732 266.96 425.325 266.716 421.746 266.716H418.004L348.458 336.32C310.227 374.537 277.284 407.062 275.25 408.526C263.781 416.983 246.862 416.983 235.393 408.526C233.359 407.062 200.254 374.374 161.779 335.913C80.4376 254.519 89.9546 261.837 79.7869 272.326Z" fill="#3C3C3C"/>
</svg>
