<svg width="131" height="154" viewBox="0 0 131 154" fill="none" xmlns="http://www.w3.org/2000/svg">
<path d="M8.69275 80.4274V77.8588L26.6731 65.4974L40.3188 48.4803L48.0247 44.4668L58.6202 46.0722H74.0319L86.875 51.8516L105.176 56.5072L113.364 61.0023L123.478 72.8821L121.712 78.501V81.0696L116.575 90.7019L92.0123 106.435H69.6974L40.3188 104.508L24.1045 95.6786L8.69275 80.4274Z" fill="black"/>
<path d="M63.4871 1.73242C59.7535 2.35468 61.1111 1.13845 30.7051 31.5159C3.09921 59.0932 2.61837 59.574 1.62841 61.6953C0.355595 64.4106 0.0727479 66.8997 0.751581 69.5867C1.37384 71.9909 2.30724 73.5465 4.54173 75.8658L6.38024 77.7892H13.0271H19.6458L23.9168 73.6879C26.2644 71.4252 28.2726 69.6715 28.3857 69.7847C28.4989 69.8978 29.998 74.5365 31.7516 80.0519C33.5053 85.5674 35.0044 90.2343 35.1175 90.4323C35.2024 90.602 37.6348 81.155 40.5199 69.417C43.716 56.3779 45.8374 48.2603 45.9505 48.5714C46.0637 48.8542 46.9688 55.0485 48.0153 62.3742C49.0336 69.6715 49.9387 76.0355 50.0235 76.4881C50.1932 77.28 50.2781 77.1952 54.3511 73.1505L58.509 69.021L62.0163 77.7609C63.9679 82.5692 65.5801 86.4725 65.6367 86.4442C65.665 86.3876 67.8712 79.062 70.5017 70.1241C73.1604 61.1862 75.4232 53.606 75.5363 53.2383C75.7061 52.7292 77.5163 57.481 83.3712 73.6596C87.5574 85.228 91.0647 94.6467 91.1495 94.5901C91.2061 94.5052 93.186 89.9515 95.5336 84.4643L99.7763 74.4799L102.294 78.666C103.68 80.9853 104.868 82.8804 104.981 82.8804C105.066 82.8804 106.31 80.2499 107.696 77.0538C109.11 73.8576 110.327 71.1706 110.44 71.114C110.525 71.0575 111.486 72.5848 112.561 74.5365L114.484 78.072H119.462H124.441L126.59 75.8375C128.004 74.3668 129.023 72.9808 129.645 71.6797C130.522 69.8695 130.578 69.5018 130.607 66.8997C130.607 64.2692 130.55 63.9298 129.645 61.9499C128.683 59.8569 128.287 59.4609 101.36 32.4493C86.3411 17.402 73.3867 4.56087 72.5947 3.93861C70.134 2.04356 66.6549 1.19501 63.4871 1.73242Z" fill="#E4E4E4"/>
<path d="M44.1403 64.4389C37.8893 90.0362 35.57 99.257 35.4003 99.0873C35.2871 98.9458 33.4769 93.3738 31.3556 86.6987C29.2342 79.9953 27.424 74.3667 27.3391 74.1404C27.2543 73.8576 26.1795 74.7344 24.0298 76.884L20.8619 80.0518L14.8656 80.1084L8.84094 80.1933L33.6749 105.14C57.3209 128.899 58.5655 130.115 60.4605 131.02C62.3273 131.897 62.6102 131.954 65.5518 131.954C70.9542 131.954 68.6631 133.877 97.1175 105.366L121.669 80.759L117.426 80.6175L113.183 80.4761L111.967 78.2699L110.751 76.0637L108.12 82.0035C106.678 85.2845 105.405 87.9715 105.32 87.9715C105.235 87.9715 104.076 86.1896 102.774 83.9834C101.445 81.8055 100.314 79.967 100.229 79.9104C100.059 79.8256 98.3055 83.8702 92.592 97.3902L90.9514 101.322L89.8201 98.2387C89.1978 96.5699 85.8319 87.3209 82.3529 77.7325C78.8739 68.1441 75.9323 60.4508 75.8474 60.6205C75.7626 60.8185 73.5281 68.2573 70.8976 77.1386C68.2671 86.0481 66.0609 93.3455 65.9478 93.3455C65.8629 93.3455 63.9678 88.8483 61.7333 83.3328L57.6886 73.2919L53.0499 77.7042C50.5043 80.1084 48.4395 82.0035 48.4395 81.8621C48.4395 81.3812 45.3282 60.4508 45.2434 60.3659C45.2151 60.3093 44.706 62.1478 44.1403 64.4389Z" fill="#E4E4E4"/>
<path d="M63.0578 0.173241C59.6131 0.925865 60.5241 0.0864029 30.2621 30.8282C3.13154 58.3858 1.82199 59.7463 0.939462 61.6857C0.0569371 63.5673 0 63.9147 0 66.7515C0 69.5883 0.0569371 69.9356 0.910993 71.7883C1.5373 73.1198 2.50523 74.4514 3.90019 75.8987C5.83605 77.954 5.97839 78.0408 7.23101 78.0408H8.54056L32.8812 53.2621C46.2614 39.657 57.7911 28.0782 58.5028 27.5572C62.5169 24.5467 68.4384 24.5467 72.4524 27.5572C73.1641 28.0782 84.7508 39.7149 98.2165 53.4069C126.685 82.3829 123.354 79.7776 126.913 76.0435C128.45 74.4514 129.39 73.1777 130.016 71.7883C130.898 69.9356 130.955 69.5883 130.955 66.7515C130.955 61.1936 133.432 64.1752 101.519 31.6387C86.2312 16.0652 73.1072 2.86532 72.367 2.28638C71.6268 1.73638 70.3742 1.01271 69.6056 0.723236C67.8975 0.057457 64.8229 -0.203072 63.0578 0.173241Z" fill="#7B4BFF"/>
<path d="M6.61542 82.356C5.14686 83.8512 4.24941 85.0474 3.65111 86.3523C2.80805 88.0922 2.75366 88.4185 2.75366 91.0827C2.75366 93.7469 2.80805 94.0732 3.65111 95.8403C4.49417 97.6617 5.74516 98.9395 31.6624 124.821C61.2511 154.372 59.7553 153.013 63.5899 153.665C64.8953 153.882 65.8471 153.855 67.0981 153.638C70.9055 152.985 69.4641 154.263 98.944 124.821C124.861 98.9395 126.112 97.6617 126.955 95.8403C127.798 94.0732 127.853 93.7469 127.853 91.0827C127.853 88.4185 127.798 88.0922 126.983 86.3523C126.384 85.1018 125.46 83.8512 124.127 82.4919C122.278 80.5617 122.142 80.4801 120.945 80.4801H119.694L96.442 103.751C83.6601 116.529 72.646 127.403 71.9661 127.893C68.1315 130.72 62.4749 130.72 58.6403 127.893C57.9604 127.403 46.8919 116.474 34.0284 103.615C6.83298 76.4022 10.0149 78.849 6.61542 82.356Z" fill="#3C3C3C"/>
</svg>
