<svg width="30" height="30" viewBox="0 0 30 30" fill="none" xmlns="http://www.w3.org/2000/svg">
<path d="M20 20.25V19C20 18.337 19.7366 17.7011 19.2678 17.2322C18.7989 16.7634 18.163 16.5 17.5 16.5H12.5C11.837 16.5 11.2011 16.7634 10.7322 17.2322C10.2634 17.7011 10 18.337 10 19V20.25" stroke="#E4E4E4" stroke-linecap="round" stroke-linejoin="round"/>
<path d="M15 14C16.3807 14 17.5 12.8807 17.5 11.5C17.5 10.1193 16.3807 9 15 9C13.6193 9 12.5 10.1193 12.5 11.5C12.5 12.8807 13.6193 14 15 14Z" stroke="#E4E4E4" stroke-linecap="round" stroke-linejoin="round"/>
<path d="M15 27.5C21.9036 27.5 27.5 21.9036 27.5 15C27.5 8.09644 21.9036 2.5 15 2.5C8.09644 2.5 2.5 8.09644 2.5 15C2.5 21.9036 8.09644 27.5 15 27.5Z" stroke="#E4E4E4" stroke-linecap="round" stroke-linejoin="round"/>
</svg>
