<svg width="30" height="30" viewBox="0 0 30 30" fill="none" xmlns="http://www.w3.org/2000/svg">
<path d="M28.75 5V12.5H21.25" stroke="#E4E4E4" stroke-width="2" stroke-linecap="round" stroke-linejoin="round"/>
<path d="M14.3554 26.2431C11.9203 26.103 9.59678 25.1753 7.73484 23.5998C5.8729 22.0242 4.57343 19.8863 4.03222 17.508C3.49102 15.1297 3.73739 12.64 4.73422 10.4139C5.73105 8.18786 7.42434 6.34605 9.55896 5.16601C11.6936 3.98598 14.1539 3.53164 16.5692 3.87145C18.9844 4.21127 21.2239 5.32683 22.95 7.05006L28.75 12.5001" stroke="#E4E4E4" stroke-width="2" stroke-linecap="round" stroke-linejoin="round"/>
<path d="M21.2508 17.3468V24H20.5177V19.2578C20.5177 18.8399 20.5295 18.4675 20.5531 18.1405C20.489 18.2046 20.4149 18.2737 20.3306 18.3478C20.2464 18.4186 19.8874 18.7118 19.2538 19.2275L18.8544 18.7068L20.6138 17.3468H21.2508ZM28.1955 20.6936C28.1955 22.9585 27.4675 24.091 26.0115 24.091C25.2801 24.091 24.7274 23.8011 24.3533 23.2214C23.9825 22.6384 23.7971 21.7772 23.7971 20.638C23.7971 19.4988 23.9775 18.6495 24.3381 18.09C24.6987 17.5271 25.2431 17.2457 25.9711 17.2457C26.7024 17.2457 27.2552 17.5372 27.6293 18.1203C28.0068 18.7034 28.1955 19.5612 28.1955 20.6936ZM24.8993 18.5551C24.6735 18.9933 24.5605 19.6977 24.5605 20.6684C24.5605 21.6357 24.6735 22.3401 24.8993 22.7816C25.1285 23.2198 25.4925 23.4388 25.9913 23.4388C26.4935 23.4388 26.8575 23.2181 27.0833 22.7765C27.3091 22.3316 27.422 21.6289 27.422 20.6684C27.422 19.7078 27.3074 19.0067 27.0782 18.5652C26.8524 18.1203 26.4884 17.8979 25.9862 17.8979C25.4874 17.8979 25.1251 18.117 24.8993 18.5551Z" fill="#E4E4E4"/>
</svg>
