<svg width="30" height="30" viewBox="0 0 30 30" fill="none" xmlns="http://www.w3.org/2000/svg">
<path d="M28.75 5V12.5H21.25" stroke="#E4E4E4" stroke-width="2" stroke-linecap="round" stroke-linejoin="round"/>
<path d="M14.3554 26.2431C11.9203 26.103 9.59678 25.1753 7.73484 23.5998C5.8729 22.0242 4.57343 19.8863 4.03222 17.508C3.49102 15.1297 3.73739 12.64 4.73422 10.4139C5.73105 8.18786 7.42434 6.34605 9.55896 5.16601C11.6936 3.98598 14.1539 3.53164 16.5692 3.87145C18.9844 4.21127 21.2239 5.32683 22.95 7.05006L28.75 12.5001" stroke="#E4E4E4" stroke-width="2" stroke-linecap="round" stroke-linejoin="round"/>
<path d="M20.2508 17.3468V24H19.5177V19.2578C19.5177 18.8399 19.5295 18.4675 19.5531 18.1405C19.489 18.2046 19.4149 18.2737 19.3306 18.3478C19.2464 18.4186 18.8874 18.7118 18.2538 19.2275L17.8544 18.7068L19.6138 17.3468H20.2508ZM27.1955 20.6936C27.1955 22.9585 26.4675 24.091 25.0115 24.091C24.2801 24.091 23.7274 23.8011 23.3533 23.2214C22.9825 22.6384 22.7971 21.7772 22.7971 20.638C22.7971 19.4988 22.9775 18.6495 23.3381 18.09C23.6987 17.5271 24.2431 17.2457 24.9711 17.2457C25.7024 17.2457 26.2552 17.5372 26.6293 18.1203C27.0068 18.7034 27.1955 19.5612 27.1955 20.6936ZM23.8993 18.5551C23.6735 18.9933 23.5605 19.6977 23.5605 20.6684C23.5605 21.6357 23.6735 22.3401 23.8993 22.7816C24.1285 23.2198 24.4925 23.4388 24.9913 23.4388C25.4935 23.4388 25.8575 23.2181 26.0833 22.7765C26.3091 22.3316 26.422 21.6289 26.422 20.6684C26.422 19.7078 26.3074 19.0067 26.0782 18.5652C25.8524 18.1203 25.4884 17.8979 24.9862 17.8979C24.4874 17.8979 24.1251 18.117 23.8993 18.5551Z" fill="#E4E4E4"/>
</svg>
