<svg width="24" height="24" viewBox="0 0 24 24" fill="none" xmlns="http://www.w3.org/2000/svg">
<path d="M9.63062 17.0841V10.1527L16.0288 9.0863V16.0177" stroke="#E4E4E4" stroke-linecap="round" stroke-linejoin="round"/>
<path d="M8.03108 18.6836C8.91449 18.6836 9.63063 17.9675 9.63063 17.0841C9.63063 16.2006 8.91449 15.4845 8.03108 15.4845C7.14766 15.4845 6.43152 16.2006 6.43152 17.0841C6.43152 17.9675 7.14766 18.6836 8.03108 18.6836Z" stroke="#E4E4E4" stroke-linecap="round" stroke-linejoin="round"/>
<path d="M14.4293 17.6172C15.3127 17.6172 16.0288 16.9011 16.0288 16.0176C16.0288 15.1342 15.3127 14.4181 14.4293 14.4181C13.5459 14.4181 12.8297 15.1342 12.8297 16.0176C12.8297 16.9011 13.5459 17.6172 14.4293 17.6172Z" stroke="#E4E4E4" stroke-linecap="round" stroke-linejoin="round"/>
<path d="M22.6194 21.239H1.48669V6.63724H22.6194V21.239Z" stroke="#E4E4E4" stroke-linecap="round" stroke-linejoin="round"/>
<path d="M3.19995 4.40002L20.5097 4.40002" stroke="#E4E4E4" stroke-linecap="round" stroke-linejoin="round"/>
<path d="M5.59998 2.40002L18.1309 2.40005" stroke="#E4E4E4" stroke-linecap="round" stroke-linejoin="round"/>
</svg>
