<svg width="30" height="30" viewBox="0 0 30 30" fill="none" xmlns="http://www.w3.org/2000/svg">
<path d="M16 15C16 14.4477 15.5523 14 15 14C14.4477 14 14 14.4477 14 15C14 15.5523 14.4477 16 15 16C15.5523 16 16 15.5523 16 15Z" fill="#E4E4E4" stroke="#E4E4E4" stroke-linecap="round" stroke-linejoin="round"/>
<path d="M16 9C16 8.44772 15.5523 8 15 8C14.4477 8 14 8.44772 14 9C14 9.55228 14.4477 10 15 10C15.5523 10 16 9.55228 16 9Z" fill="#E4E4E4" stroke="#E4E4E4" stroke-linecap="round" stroke-linejoin="round"/>
<path d="M16 21C16 20.4477 15.5523 20 15 20C14.4477 20 14 20.4477 14 21C14 21.5523 14.4477 22 15 22C15.5523 22 16 21.5523 16 21Z" fill="#E4E4E4" stroke="#E4E4E4" stroke-linecap="round" stroke-linejoin="round"/>
</svg>
