<svg width="30" height="30" viewBox="0 0 30 30" fill="none" xmlns="http://www.w3.org/2000/svg">
<path d="M1.25 5V12.5H8.75" stroke="#E4E4E4" stroke-width="2" stroke-linecap="round" stroke-linejoin="round"/>
<path d="M15.6446 26.2431C18.0797 26.103 20.4032 25.1753 22.2652 23.5998C24.1271 22.0242 25.4266 19.8863 25.9678 17.508C26.509 15.1297 26.2626 12.64 25.2658 10.4139C24.2689 8.18786 22.5757 6.34605 20.441 5.16601C18.3064 3.98598 15.8461 3.53164 13.4308 3.87145C11.0156 4.21127 8.77614 5.32683 7.05 7.05006L1.25 12.5001" stroke="#E4E4E4" stroke-width="2" stroke-linecap="round" stroke-linejoin="round"/>
<path d="M5.25076 17.3468V24H4.51769V19.2578C4.51769 18.8399 4.52949 18.4675 4.55308 18.1405C4.48905 18.2046 4.4149 18.2737 4.33064 18.3478C4.24638 18.4186 3.88743 18.7118 3.25379 19.2275L2.8544 18.7068L4.61375 17.3468H5.25076ZM12.1955 20.6936C12.1955 22.9585 11.4675 24.091 10.0115 24.091C9.28013 24.091 8.72738 23.8011 8.35326 23.2214C7.98252 22.6384 7.79715 21.7772 7.79715 20.638C7.79715 19.4988 7.97746 18.6495 8.3381 18.09C8.69873 17.5271 9.24305 17.2457 9.97106 17.2457C10.7024 17.2457 11.2552 17.5372 11.6293 18.1203C12.0068 18.7034 12.1955 19.5612 12.1955 20.6936ZM8.89927 18.5551C8.67345 18.9933 8.56054 19.6977 8.56054 20.6684C8.56054 21.6357 8.67345 22.3401 8.89927 22.7816C9.12846 23.2198 9.49246 23.4388 9.99128 23.4388C10.4935 23.4388 10.8575 23.2181 11.0833 22.7765C11.3091 22.3316 11.422 21.6289 11.422 20.6684C11.422 19.7078 11.3074 19.0067 11.0782 18.5652C10.8524 18.1203 10.4884 17.8979 9.98623 17.8979C9.48741 17.8979 9.12509 18.117 8.89927 18.5551Z" fill="#E4E4E4"/>
</svg>
